<?xml version='1.0' encoding='utf-8'?>
<svg xmlns="http://www.w3.org/2000/svg" width="1920" height="1080" viewBox="0 0 1920 1080" data-theme="dark" data-semantic-intent="taxonomy_list" data-relation-type="taxonomy" data-site-visual-identity="heritage-amber">
  <style>
        @font-face {
            font-family: 'Inter';
            src: url('assets/fonts/Inter-Regular.ttf') format('truetype');
            font-weight: 400;
            font-style: normal;
            font-display: swap;
        }
        @font-face {
            font-family: 'Inter';
            src: url('assets/fonts/Inter-Bold.ttf') format('truetype');
            font-weight: 600;
            font-style: normal;
            font-display: swap;
        }
        @font-face {
            font-family: 'Inter';
            src: url('assets/fonts/Inter-Bold.ttf') format('truetype');
            font-weight: 800;
            font-style: normal;
            font-display: swap;
        }
        
:root {
    --background: #0f172a;
    --panel: #1e293b;
    --primary-text: #f1f5f9;
    --muted-text: #94a3b8;
    --inverse-text: #0f172a;
    --border: #334155;
    --shadow-color: #000000;
    --icon-pad-bg: #1e293b;
    --art-glow: #7dd3fc;
    --art-glow-opacity: 0.18;
    --art-sheen: #ffffff;
    --art-sheen-opacity: 0.18;
    --art-shadow: #000000;
    --art-shadow-opacity: 0.28;
    --art-muted-line: #64748b;
    --art-panel-tint: #1e293b;
    --semantic-risk: #f87171;
    --semantic-warning: #fb923c;
    --semantic-uncertain: #fbbf24;
    --semantic-evidence: #60a5fa;
    --semantic-claim: #c084fc;
    --semantic-positive: #4ade80;
    --semantic-outcome: #22d3ee;
    --font-family: 'Inter', 'Segoe UI', 'Kalam', Roboto, Helvetica, Arial, sans-serif;
    --radius-xl: 16px;
    --font-family-headline: 'Segoe UI Variable Display', 'Aptos Display', 'Inter', 'Segoe UI', Helvetica, Arial, sans-serif;
    --font-family-body: 'Segoe UI Variable Text', 'Aptos', 'Inter', 'Segoe UI', Helvetica, Arial, sans-serif;
    --font-heading: var(--font-family-headline);
    --font-body: var(--font-family-body);
    --font-size-h1: 64px;
    --font-size-h2: 42px;
    --font-size-h3: 29px;
    --font-size-body: 21px;
    --font-size-caption: 17px;
    --secondary-text: var(--muted-text);
    --panel-border: var(--border);
    --font-weight-normal: 400;
    --font-weight-medium: 500;
    --font-weight-semibold: 600;
    --font-weight-bold: 700;
    --spacing-gutter-pct: 0.07;
    --spacing-top-pct: 0.15;
    --spacing-bottom-pct: 0.07;
    --spacing-title-y-pct: 0.055;
    --accent-1: #fbbf24;
    --accent-2: #fb923c;
    --accent-3: #f59e0b;
    --accent-4: #fca5a5;
    --accent-5: #d6a66f;
    --accent-6: #7dd3fc;
}
:root[data-theme="dark"] {
    --background: #0f172a;
    --panel: #1e293b;
    --primary-text: #f1f5f9;
    --muted-text: #94a3b8;
    --inverse-text: #0f172a;
    --border: #334155;
    --shadow-color: #000000;
    --icon-pad-bg: #1e293b;
    --art-glow: #7dd3fc;
    --art-glow-opacity: 0.18;
    --art-sheen: #ffffff;
    --art-sheen-opacity: 0.18;
    --art-shadow: #000000;
    --art-shadow-opacity: 0.28;
    --art-muted-line: #64748b;
    --art-panel-tint: #1e293b;
    --semantic-risk: #f87171;
    --semantic-warning: #fb923c;
    --semantic-uncertain: #fbbf24;
    --semantic-evidence: #60a5fa;
    --semantic-claim: #c084fc;
    --semantic-positive: #4ade80;
    --semantic-outcome: #22d3ee;
    --accent-1: #fbbf24;
    --accent-2: #fb923c;
    --accent-3: #f59e0b;
    --accent-4: #fca5a5;
    --accent-5: #d6a66f;
    --accent-6: #7dd3fc;
}
:root[data-theme="light"] {
    --background: #f8fafc;
    --panel: #ffffff;
    --primary-text: #0f172a;
    --muted-text: #64748b;
    --inverse-text: #ffffff;
    --border: #e2e8f0;
    --shadow-color: #000000;
    --icon-pad-bg: #1e293b;
    --art-glow: #0891b2;
    --art-glow-opacity: 0.10;
    --art-sheen: #ffffff;
    --art-sheen-opacity: 0.34;
    --art-shadow: #0f172a;
    --art-shadow-opacity: 0.14;
    --art-muted-line: #94a3b8;
    --art-panel-tint: #f1f5f9;
    --semantic-risk: #b91c1c;
    --semantic-warning: #c2410c;
    --semantic-uncertain: #a16207;
    --semantic-evidence: #1d4ed8;
    --semantic-claim: #6d28d9;
    --semantic-positive: #15803d;
    --semantic-outcome: #0e7490;
    --accent-1: #a16207;
    --accent-2: #c2410c;
    --accent-3: #b45309;
    --accent-4: #b91c1c;
    --accent-5: #92400e;
    --accent-6: #0369a1;
}</style>
  <rect x="0" y="0" width="1.92E+3" height="1.08E+3" fill="#252a34" stroke="none" id="programmatic_background"/>
  <line id="HEADER_DECOR" x1="960.0" x2="1080.0" y1="90.0" y2="90.0" stroke="var(--accent-1)" stroke-width="6" stroke-linecap="round"/>
  <defs>
    <pattern id="svga1791855-napkin-hatch" patternUnits="userSpaceOnUse" width="12" height="12">
      <path d="M -3 12 L 12 -3 M 0 15 L 15 0" fill="none" stroke="var(--primary-text)" stroke-width="1" stroke-opacity="0.05"/>
    </pattern>
    <filter id="svga1791855-shadow" x="-30%" y="-30%" width="160%" height="160%">
      <feDropShadow dx="0" dy="2" stdDeviation="3" flood-color="#000000" flood-opacity="0.08"/>
      <feDropShadow dx="0" dy="6" stdDeviation="10" flood-color="#000000" flood-opacity="0.12"/>
    </filter>
    <radialGradient id="svga1791855-universal-edge-vignette" cx="50%" cy="50%" r="72%">
      <stop offset="0%" stop-color="var(--background)" stop-opacity="0"/>
      <stop offset="72%" stop-color="var(--background)" stop-opacity="0.12"/>
      <stop offset="100%" stop-color="var(--primary-text)" stop-opacity="0.08"/>
    </radialGradient>
    <linearGradient id="svga1791855-universal-surface-sheen" x1="0%" y1="0%" x2="100%" y2="100%">
      <stop offset="0%" stop-color="var(--art-sheen)" stop-opacity="var(--art-sheen-opacity)"/>
      <stop offset="46%" stop-color="var(--art-sheen)" stop-opacity="0.035"/>
      <stop offset="100%" stop-color="var(--art-panel-tint)" stop-opacity="0.14"/>
    </linearGradient>
    <radialGradient id="svga1791855-universal-icon-aura" cx="50%" cy="42%" r="64%">
      <stop offset="0%" stop-color="var(--art-glow)" stop-opacity="var(--art-glow-opacity)"/>
      <stop offset="100%" stop-color="var(--background)" stop-opacity="0"/>
    </radialGradient>
    <radialGradient id="svga1791855-venn-center-glow" cx="50%" cy="50%" r="60%">
      <stop offset="0%" stop-color="var(--art-glow)" stop-opacity="var(--art-glow-opacity)"/>
      <stop offset="100%" stop-color="var(--background)" stop-opacity="0"/>
    </radialGradient>
    <linearGradient id="svga1791855-venn-label-sheen" x1="0%" y1="0%" x2="100%" y2="100%">
      <stop offset="0%" stop-color="var(--inverse-text)" stop-opacity="0.14"/>
      <stop offset="100%" stop-color="var(--background)" stop-opacity="0.12"/>
    </linearGradient>
    <filter id="svga1791855-text-glow" x="-20%" y="-20%" width="140%" height="140%">
      <feDropShadow dx="0" dy="0" stdDeviation="2" flood-color="#000000" flood-opacity="0.4"/>
    </filter>
    <marker id="svga1791855-arrowhead" markerWidth="10" markerHeight="7" refX="9" refY="3.5" orient="auto" markerUnits="strokeWidth">
      <polygon points="0 0, 10 3.5, 0 7" fill="var(--muted-text)" opacity="0.6"/>
    </marker>
  </defs>
  <rect width="100%" height="100%" fill="var(--background)" id="CANVAS_BG"/>
  <rect width="100%" height="100%" fill="url(#svga1791855-napkin-hatch)"/>
  <rect id="UNIVERSAL_EDGE_VIGNETTE" width="100%" height="100%" fill="url(#svga1791855-universal-edge-vignette)" opacity="0.62"/>
  <text id="TITLE" x="960.0" y="59" text-anchor="middle" font-weight="800" font-size="50" fill="#f1f5f9" style="font-size: 69px; font-family: 'Segoe UI Variable Display', 'Aptos Display', 'Inter', 'Segoe UI', Helvetica, Arial, sans-serif; font-weight: 800; font-kerning: normal; font-feature-settings: &quot;kern&quot; 1, &quot;liga&quot; 1; letter-spacing:-1.2px;" data-final-font-size="69">
    <tspan x="960.0" dy="70.47px">Factors Shaping the 1970s UFO Wave</tspan>
  </text>
  <rect id="TITLE_FRAME" x="134" y="30" width="1652" height="70" fill="none"/>
  <g id="DIAGRAM_MAIN" transform="translate(960, 580)">
    <circle id="VENN_ART_CENTER_GLOW" cx="0" cy="0" r="255" fill="url(#svga1791855-venn-center-glow)" opacity="0.95"/>
    <circle cx="0" cy="0" r="255" fill="url(#svga1791855-venn-center-glow)" opacity="0.95"/>
    <circle cx="0" cy="0" r="255" fill="url(#svga1791855-venn-center-glow)" opacity="0.95"/>
    <circle cx="0" cy="0" r="255" fill="url(#svga1791855-venn-center-glow)" opacity="0.95"/>
    <circle cx="0" cy="0" r="255" fill="url(#svga1791855-venn-center-glow)" opacity="0.95"/>
    <circle cx="0" cy="0" r="255" fill="url(#svga1791855-venn-center-glow)" opacity="0.95"/>
    <circle cx="0" cy="0" r="255" fill="url(#svga1791855-venn-center-glow)" opacity="0.95"/>
    <circle cx="0" cy="0" r="255" fill="url(#svga1791855-venn-center-glow)" opacity="0.95"/>
    <circle cx="0" cy="0" r="255" fill="url(#svga1791855-venn-center-glow)" opacity="0.95"/>
    <circle cx="0" cy="0" r="255" fill="url(#svga1791855-venn-center-glow)" opacity="0.95"/>
    <circle cx="0" cy="0" r="255" fill="url(#svga1791855-venn-center-glow)" opacity="0.95"/>
    <circle cx="0" cy="0" r="255" fill="url(#svga1791855-venn-center-glow)" opacity="0.95"/>
    <circle cx="0" cy="0" r="255" fill="url(#svga1791855-venn-center-glow)" opacity="0.95"/>
    <circle cx="0" cy="0" r="255" fill="url(#svga1791855-venn-center-glow)" opacity="0.95"/>
    <circle cx="0" cy="0" r="255" fill="url(#svga1791855-venn-center-glow)" opacity="0.95"/>
    <circle cx="0" cy="0" r="255" fill="url(#svga1791855-venn-center-glow)" opacity="0.95"/>
    <circle cx="0" cy="0" r="255" fill="url(#svga1791855-venn-center-glow)" opacity="0.95"/>
    <circle cx="0" cy="0" r="255" fill="url(#svga1791855-venn-center-glow)" opacity="0.95"/>
    <circle cx="0" cy="0" r="255" fill="url(#svga1791855-venn-center-glow)" opacity="0.95"/>
    <circle cx="0" cy="0" r="255" fill="url(#svga1791855-venn-center-glow)" opacity="0.95"/>
    <circle cx="0" cy="0" r="255" fill="url(#svga1791855-venn-center-glow)" opacity="0.95"/>
    <circle cx="0" cy="0" r="255" fill="url(#svga1791855-venn-center-glow)" opacity="0.95"/>
    <circle cx="0" cy="0" r="255" fill="url(#svga1791855-venn-center-glow)" opacity="0.95"/>
    <circle cx="0" cy="0" r="255" fill="url(#svga1791855-venn-center-glow)" opacity="0.95"/>
    <circle cx="0" cy="0" r="255" fill="url(#svga1791855-venn-center-glow)" opacity="0.95"/>
    <circle cx="0" cy="0" r="255" fill="url(#svga1791855-venn-center-glow)" opacity="0.95"/>
    <!-- Circle backgrounds (pentagon arrangement) -->
    <!-- r=120, center offset 140 from origin -->
    <circle id="ITEM_1_BG" cx="0" cy="-140" r="180" fill="var(--accent-1)" fill-opacity="0.30" stroke="var(--border)" stroke-width="2"/>
    <circle id="ITEM_2_BG" cx="133" cy="-43" r="180" fill="var(--accent-2)" fill-opacity="0.30" stroke="var(--border)" stroke-width="2"/>
    <circle id="ITEM_3_BG" cx="82" cy="113" r="180" fill="var(--accent-3)" fill-opacity="0.30" stroke="var(--border)" stroke-width="2"/>
    <circle id="ITEM_4_BG" cx="-82" cy="113" r="180" fill="var(--accent-1)" fill-opacity="0.30" stroke="var(--border)" stroke-width="2"/>
    <circle id="ITEM_5_BG" cx="-133" cy="-43" r="180" fill="var(--accent-2)" fill-opacity="0.30" stroke="var(--border)" stroke-width="2"/>
    <!-- ITEM 1 - Top -->
    <circle id="ITEM_1_PAD" cx="0" cy="-270" r="48" fill="var(--icon-pad-bg)" stroke="var(--accent-1)" opacity="1" fill-opacity="0.9" stroke-width="2" stroke-opacity="0.72" data-badge-layer="pad"/>
    <circle id="ITEM_1_PAD_INNER" cx="0" cy="-270" r="37.44" fill="var(--accent-1)" fill-opacity="0.12" stroke="none" data-badge-layer="tint"/>
    <circle cx="0" cy="-270" r="38" fill="none" stroke="var(--accent-1)" stroke-width="3" stroke-dasharray="6 4" display="none" data-suppressed-decoration="redundant-badge-ring"/>
    <g id="ITEM_1_ICON" transform="translate(-27, -297)" data-icon-size="54" stroke-linecap="round" stroke-linejoin="round" data-badge-treatment="clean">
      <g transform="translate(-15.788571428571426,-18.12857142857142) scale(2.674285714285714)">
        <path d="M8.97695 9.81822C7.68369 9.81822 7.53001 10.5467 7.61483 10.9109V25.3158L24.7324 27.2146L30.0002 22.5V15.0422L23.1876 8.26566L22.8596 8.02197L15.5002 9L12.4142 8.02197C12.2033 8.15625 11.951 8.32512 11.8094 8.46545C10.993 9.27463 10.3546 9.81822 8.97695 9.81822Z" fill="#8C5543"/>
        <path d="M13.6198 9.31063C13.035 9.08884 12.4462 8.80135 11.8037 8.47407C12.4581 7.81966 14.0595 6.21636 15.2299 5.03847C16.6928 3.5661 18.656 3.69821 19.9679 5.03847C20.2326 5.30884 20.5296 5.60931 20.8363 5.91774C18.5156 7.0625 16.3906 7.6875 13.6198 9.31063Z" fill="#CDC4D6"/>
        <path d="M13.1558 9.12228C14.1001 9.52955 15.0007 9.7862 16.0606 9.7862C17.6085 9.7862 18.8166 9.19163 19.4207 8.87073C20.0247 8.54982 21.0818 8.2006 21.9973 8.2006C22.7003 8.2006 23.0885 8.25855 23.2104 8.29102C22.8107 7.89374 22.362 7.44613 21.9279 7.00997C21.5508 6.63436 21.1458 6.22946 20.7593 5.84035C19.4543 4.68908 17.6172 4.64256 16.23 6.03871C15.2344 7.04072 13.9269 8.35058 13.1558 9.12228Z" fill="#F4F4F4"/>
        <path d="M5.96834 11.2402C5.07024 12.3299 2.95313 14.8594 2.00684 15.9879V22.5L16 27.8125L22.9724 25.3105L15.8325 18.1406C14.7667 17.0629 13.3627 16.2097 11.7162 16.2097C9.99483 16.2097 8.99195 14.7428 8.99195 13.0065C8.99195 10.9666 12.3886 10.1728 13.1604 9.12524C12.4433 8.81133 12.1057 8.64478 11.8209 8.46558C10.6252 9.68774 9.79822 9.78931 9.29321 9.78931C8.96166 9.78931 7.59646 9.61208 5.96834 11.2402Z" fill="#7D4533"/>
        <path d="M11.0125 23.0202C7.06082 21.6581 4.12549 21.9275 2 22.4664V29.9955H30V22.4609C26.8267 23.8679 23.4212 25.0261 20.0084 25.0261C16.5956 25.0261 14.9641 24.3824 11.0125 23.0202Z" fill="#00D26A"/>
      </g>
    </g>
    <rect id="ITEM_1_TEXT_BG" x="-208.0" y="-236.0" width="416.0" height="184.0" rx="16" fill="var(--panel)" fill-opacity="0.94" stroke="var(--primary-text)" stroke-opacity="0.12" stroke-width="1.5"/>
    <rect x="-208.0" y="-236.0" width="416.0" height="184.0" rx="16" fill="url(#svga1791855-venn-label-sheen)" opacity="0.85"/>
    <text id="ITEM_1_HEAD" x="0.0" y="-220.0" text-anchor="middle" font-weight="bold" font-size="34" fill="var(--accent-1)" data-bg-id="ITEM_1_TEXT_BG" fill-opacity="1.0" stroke="none" style="font-size: 31px; font-family: 'Segoe UI Variable Display', 'Aptos Display', 'Inter', 'Segoe UI', Helvetica, Arial, sans-serif; font-weight: 700; font-kerning: normal; font-feature-settings: &quot;kern&quot; 1, &quot;liga&quot; 1; letter-spacing:-0.4px;" data-final-font-size="31">
      <tspan x="0.0" dy="31.52px">Geographic Layout</tspan>
    </text>
    <rect id="ITEM_1_HEAD_FRAME" x="-170" y="-220" width="340" height="46" fill="none"/>
    <text id="ITEM_1_BODY" x="0.0" y="-168.0" text-anchor="middle" font-size="20" fill="var(--primary-text)" data-bg-id="ITEM_1_TEXT_BG" style="font-size: 23px; font-family: 'Segoe UI Variable Text', 'Aptos', 'Inter', 'Segoe UI', Helvetica, Arial, sans-serif; font-weight: 400; font-kerning: normal; font-feature-settings: &quot;kern&quot; 1, &quot;liga&quot; 1;" data-final-font-size="23">
      <tspan x="0.0" dy="27.82px">Wide horizons and dark coastal</tspan>
      <tspan x="0.0" dy="26.45px">viewing areas</tspan>
    </text>
    <rect id="ITEM_1_BODY_FRAME" x="-190" y="-168" width="380" height="100" fill="none"/>
    <!-- ITEM 2 - Top Right -->
    <circle id="ITEM_2_PAD" cx="256" cy="-83" r="48" fill="var(--icon-pad-bg)" stroke="var(--accent-2)" opacity="1" fill-opacity="0.9" stroke-width="2" stroke-opacity="0.72" data-badge-layer="pad"/>
    <circle id="ITEM_2_PAD_INNER" cx="256" cy="-83" r="37.44" fill="var(--accent-2)" fill-opacity="0.12" stroke="none" data-badge-layer="tint"/>
    <circle cx="256" cy="-83" r="38" fill="none" stroke="var(--accent-2)" stroke-width="3" stroke-dasharray="6 4" display="none" data-suppressed-decoration="redundant-badge-ring"/>
    <g id="ITEM_2_ICON" transform="translate(229, -110)" data-icon-size="54" stroke-linecap="round" stroke-linejoin="round" data-badge-treatment="clean">
      <g transform="translate(-15.788571428571426,-15.788571428571426) scale(2.674285714285714)">
        <path d="M14.9998 5.5L16.6147 4.98752L16.6662 4.93638C17.1092 4.49106 17.1092 3.78065 16.6768 3.33532C16.2443 2.88999 15.5272 2.89002 15.0842 3.32474L14.0215 4.38018L14.9998 5.5ZM28.659 17.9364L27.9804 18.6117L26.9998 17.5L27.4424 16.0851C27.8529 15.9163 28.3427 15.9981 28.6695 16.3353C29.1116 16.77 29.1116 17.4911 28.659 17.9364Z" fill="#9B9B9B"/>
        <path d="M14.1209 28.8751L12.7723 23.3207C14.5105 22.308 16.1288 21.1049 17.5973 19.7113L21.0251 16.4565L24.4676 14.906L26.411 11.3426L28.7058 9.16379C30.394 7.5596 30.434 4.88261 28.8057 3.2283C27.1674 1.57399 24.5001 1.59405 22.8818 3.26841L20.3602 5.89209L16.2607 7.61854L15.2234 11.2368L12.2628 14.3172C10.8643 15.781 9.63554 17.3952 8.6166 19.1297L3.09231 17.7261C2.78264 17.6459 2.46297 17.7361 2.2332 17.9567C1.79366 18.3978 2.03342 18.9493 2.47296 19.4105L12.4227 29.4968C12.9121 30.0181 13.4316 30.1886 13.8712 29.7474C14.1109 29.5068 14.2008 29.186 14.1209 28.8751Z" fill="#CDC4D6"/>
        <path d="M27.7929 5.76988L26.2533 4.21808C25.9708 3.92892 25.503 3.92894 25.2205 4.20846C24.9282 4.48797 24.9282 4.95062 25.2107 5.23013L26.7503 6.78191C27.0329 7.07106 27.5006 7.07107 27.7831 6.79156C28.0657 6.51204 28.0755 6.05904 27.7929 5.76988Z" fill="#00A6ED"/>
        <path d="M15.2156 11.2449L20.3817 5.8697L8.34626 3.051C7.88626 2.941 7.39625 3.011 6.97625 3.241C5.67625 3.971 5.67625 5.83101 6.96625 6.56101L15.2156 11.2449ZM26.4293 11.3253L21.0085 16.4723L25.46 24.7C26.16 26.01 28.03 26.04 28.78 24.76C29.02 24.35 29.1 23.87 29 23.4L26.4293 11.3253ZM8.15643 22.3151C8.57618 21.8934 9.26303 21.8934 9.68277 22.3246C10.1121 22.7463 10.1025 23.4363 9.67323 23.8579L6.83996 26.6849C6.42022 27.1066 5.73337 27.1066 5.31362 26.6754C4.89388 26.2537 4.89388 25.5637 5.32317 25.1421L8.15643 22.3151Z" fill="#0084CE"/>
      </g>
    </g>
    <rect id="ITEM_2_TEXT_BG" x="322.0" y="-156.0" width="416.0" height="204.0" rx="16" fill="var(--panel)" fill-opacity="0.94" stroke="var(--primary-text)" stroke-opacity="0.12" stroke-width="1.5"/>
    <rect x="322.0" y="-156.0" width="416.0" height="204.0" rx="16" fill="url(#svga1791855-venn-label-sheen)" opacity="0.85"/>
    <text id="ITEM_2_HEAD" x="340.0" y="-140.0" text-anchor="start" font-weight="bold" font-size="34" fill="var(--accent-2)" data-bg-id="ITEM_2_TEXT_BG" fill-opacity="1.0" stroke="none" style="font-size: 31px; font-family: 'Segoe UI Variable Display', 'Aptos Display', 'Inter', 'Segoe UI', Helvetica, Arial, sans-serif; font-weight: 700; font-kerning: normal; font-feature-settings: &quot;kern&quot; 1, &quot;liga&quot; 1; letter-spacing:-0.4px;" data-final-font-size="31">
      <tspan x="340.0" dy="32.52px">Aviation Traffic</tspan>
    </text>
    <rect id="ITEM_2_HEAD_FRAME" x="340" y="-140" width="260" height="48" fill="none"/>
    <text id="ITEM_2_BODY" x="340.0" y="-88.0" text-anchor="start" font-size="20" fill="var(--primary-text)" data-bg-id="ITEM_2_TEXT_BG" style="font-size: 23px; font-family: 'Segoe UI Variable Text', 'Aptos', 'Inter', 'Segoe UI', Helvetica, Arial, sans-serif; font-weight: 400; font-kerning: normal; font-feature-settings: &quot;kern&quot; 1, &quot;liga&quot; 1;" data-final-font-size="23">
      <tspan x="340.0" dy="31.82px">Increased international flights</tspan>
      <tspan x="340.0" dy="26.45px">and landing lights</tspan>
    </text>
    <rect id="ITEM_2_BODY_FRAME" x="340" y="-88" width="380" height="120" fill="none"/>
    <!-- ITEM 3 - Bottom Right -->
    <circle id="ITEM_3_PAD" cx="158" cy="220" r="48" fill="var(--icon-pad-bg)" stroke="var(--accent-3)" opacity="1" fill-opacity="0.9" stroke-width="2" stroke-opacity="0.72" data-badge-layer="pad"/>
    <circle id="ITEM_3_PAD_INNER" cx="158" cy="220" r="37.44" fill="var(--accent-3)" fill-opacity="0.12" stroke="none" data-badge-layer="tint"/>
    <circle cx="158" cy="220" r="38" fill="none" stroke="var(--accent-3)" stroke-width="3" stroke-dasharray="6 4" display="none" data-suppressed-decoration="redundant-badge-ring"/>
    <g id="ITEM_3_ICON" transform="translate(131, 193)" data-icon-size="54" stroke-linecap="round" stroke-linejoin="round" data-badge-treatment="clean">
      <g transform="translate(-12.935999999999998,-12.936) scale(2.496)">
        <path d="M27.938 8.83821C24.0423 5.04133 17.8344 5.05797 13.9753 8.86406C13.4392 8.67001 12.8612 8.56433 12.26 8.56433C10.458 8.56433 8.87859 9.50994 7.98809 10.929C4.08596 11.1722 1 14.4106 1 18.3743C1 20.1277 1.61099 21.7416 2.62059 23.0183C3.99219 24.8117 6.14877 25.9643 8.58 25.9643H21.27C24.4212 25.9643 27.2042 24.4125 28.9045 22.0385C31.9165 18.083 31.5813 12.4038 27.9394 8.83964L27.938 8.83821Z" fill="#B4ACBC"/>
        <path d="M14.55 9.70434C18.01 6.15434 23.69 6.09434 27.24 9.55434C30.52 12.7643 30.82 17.8843 28.1 21.4443C26.58 23.5743 24.09 24.9643 21.27 24.9643H8.58C6.47 24.9643 4.6 23.9643 3.41 22.4043C2.53 21.2943 2 19.8943 2 18.3743C2 14.8043 4.89 11.9143 8.46 11.9143C8.50303 11.9143 8.54595 11.9148 8.58877 11.9156C9.22825 10.5277 10.6316 9.56433 12.26 9.56433C12.9685 9.56433 13.6345 9.74673 14.2134 10.0671C14.3215 9.94392 14.4337 9.82294 14.55 9.70434Z" fill="#F3EEF8"/>
      </g>
    </g>
    <rect id="ITEM_3_TEXT_BG" x="224.0" y="154.0" width="416.0" height="202.0" rx="16" fill="var(--panel)" fill-opacity="0.94" stroke="var(--primary-text)" stroke-opacity="0.12" stroke-width="1.5"/>
    <rect x="224.0" y="154.0" width="416.0" height="202.0" rx="16" fill="url(#svga1791855-venn-label-sheen)" opacity="0.85"/>
    <text id="ITEM_3_HEAD" x="242.0" y="170.0" text-anchor="start" font-weight="bold" font-size="34" fill="var(--accent-3)" data-bg-id="ITEM_3_TEXT_BG" fill-opacity="1.0" stroke="none" style="font-size: 28px; font-family: 'Segoe UI Variable Display', 'Aptos Display', 'Inter', 'Segoe UI', Helvetica, Arial, sans-serif; font-weight: 700; font-kerning: normal; font-feature-settings: &quot;kern&quot; 1, &quot;liga&quot; 1; letter-spacing:-0.4px;" data-final-font-size="28">
      <tspan x="242.0" dy="30.30px">Atmospheric Effects</tspan>
    </text>
    <rect id="ITEM_3_HEAD_FRAME" x="242" y="170" width="260" height="48" fill="none"/>
    <text id="ITEM_3_BODY" x="242.0" y="220.0" text-anchor="start" font-size="20" fill="var(--primary-text)" data-bg-id="ITEM_3_TEXT_BG" style="font-size: 23px; font-family: 'Segoe UI Variable Text', 'Aptos', 'Inter', 'Segoe UI', Helvetica, Arial, sans-serif; font-weight: 400; font-kerning: normal; font-feature-settings: &quot;kern&quot; 1, &quot;liga&quot; 1;" data-final-font-size="23">
      <tspan x="242.0" dy="31.82px">Distortion and stars near the</tspan>
      <tspan x="242.0" dy="26.45px">horizon line</tspan>
    </text>
    <rect id="ITEM_3_BODY_FRAME" x="242" y="220" width="380" height="120" fill="none"/>
    <!-- ITEM 4 - Bottom Left -->
    <circle id="ITEM_4_PAD" cx="-158" cy="220" r="48" fill="var(--icon-pad-bg)" stroke="var(--accent-1)" opacity="1" fill-opacity="0.9" stroke-width="2" stroke-opacity="0.72" data-badge-layer="pad"/>
    <circle id="ITEM_4_PAD_INNER" cx="-158" cy="220" r="37.44" fill="var(--accent-1)" fill-opacity="0.12" stroke="none" data-badge-layer="tint"/>
    <circle cx="-158" cy="220" r="38" fill="none" stroke="var(--accent-4)" stroke-width="3" stroke-dasharray="6 4" display="none" data-suppressed-decoration="redundant-badge-ring"/>
    <g id="ITEM_4_ICON" transform="translate(-185, 193)" data-icon-size="54" stroke-linecap="round" stroke-linejoin="round" data-badge-treatment="clean">
      <g transform="translate(-15.788571428571426,-17.12571428571428) scale(2.674285714285714)">
        <path d="M22.5247 17.94C26.6502 17.94 29.9947 14.5956 29.9947 10.47C29.9947 6.34443 26.6502 3 22.5247 3C18.3991 3 15.0547 6.34443 15.0547 10.47C15.0547 14.5956 18.3991 17.94 22.5247 17.94Z" fill="#533566"/>
        <path d="M2.64445 29.2101C1.81445 28.3301 1.78446 26.9601 2.56446 26.0401L15.1045 11.3401L21.2145 17.8201L5.80445 29.4801C4.84445 30.2101 3.47445 30.0901 2.64445 29.2101Z" fill="#9B9B9B"/>
        <path d="M18.9958 4.00515L28.9358 14.5552C29.5958 15.2552 29.5658 16.3552 28.8658 17.0051C28.1658 17.6651 27.0758 17.6352 26.4158 16.9352L16.4758 6.38515C15.8158 5.68515 15.8458 4.59517 16.5458 3.93517C17.2458 3.27517 18.3358 3.30515 18.9958 4.00515ZM15.4146 18.5302C15.4146 19.342 14.7565 20.0002 13.9446 20.0002C13.1328 20.0002 12.4746 19.342 12.4746 18.5302C12.4746 17.7183 13.1328 17.0602 13.9446 17.0602C14.7565 17.0602 15.4146 17.7183 15.4146 18.5302Z" fill="#BEBEBE"/>
      </g>
    </g>
    <rect id="ITEM_4_TEXT_BG" x="-640.0" y="154.0" width="416.0" height="202.0" rx="16" fill="var(--panel)" fill-opacity="0.94" stroke="var(--primary-text)" stroke-opacity="0.12" stroke-width="1.5"/>
    <rect x="-640.0" y="154.0" width="416.0" height="202.0" rx="16" fill="url(#svga1791855-venn-label-sheen)" opacity="0.85"/>
    <text id="ITEM_4_HEAD" x="-242.0" y="170.0" text-anchor="end" font-weight="bold" font-size="34" fill="var(--accent-1)" data-bg-id="ITEM_4_TEXT_BG" fill-opacity="1.0" stroke="none" style="font-size: 31px; font-family: 'Segoe UI Variable Display', 'Aptos Display', 'Inter', 'Segoe UI', Helvetica, Arial, sans-serif; font-weight: 700; font-kerning: normal; font-feature-settings: &quot;kern&quot; 1, &quot;liga&quot; 1; letter-spacing:-0.4px;" data-final-font-size="31">
      <tspan x="-242.0" dy="32.52px">Media Influence</tspan>
    </text>
    <rect id="ITEM_4_HEAD_FRAME" x="-502" y="170" width="260" height="48" fill="none"/>
    <text id="ITEM_4_BODY" x="-242.0" y="220.0" text-anchor="end" font-size="20" fill="var(--primary-text)" data-bg-id="ITEM_4_TEXT_BG" style="font-size: 23px; font-family: 'Segoe UI Variable Text', 'Aptos', 'Inter', 'Segoe UI', Helvetica, Arial, sans-serif; font-weight: 400; font-kerning: normal; font-feature-settings: &quot;kern&quot; 1, &quot;liga&quot; 1;" data-final-font-size="23">
      <tspan x="-242.0" dy="31.82px">National television provided</tspan>
      <tspan x="-242.0" dy="26.45px">a ready-made vocabulary</tspan>
    </text>
    <rect id="ITEM_4_BODY_FRAME" x="-622" y="220" width="380" height="120" fill="none"/>
    <!-- ITEM 5 - Top Left -->
    <circle id="ITEM_5_PAD" cx="-256" cy="-83" r="48" fill="var(--icon-pad-bg)" stroke="var(--accent-2)" opacity="1" fill-opacity="0.9" stroke-width="2" stroke-opacity="0.72" data-badge-layer="pad"/>
    <circle id="ITEM_5_PAD_INNER" cx="-256" cy="-83" r="37.44" fill="var(--accent-2)" fill-opacity="0.12" stroke="none" data-badge-layer="tint"/>
    <circle cx="-256" cy="-83" r="38" fill="none" stroke="var(--accent-5)" stroke-width="3" stroke-dasharray="6 4" display="none" data-suppressed-decoration="redundant-badge-ring"/>
    <g id="ITEM_5_ICON" transform="translate(-283, -110)" data-icon-size="54" stroke-linecap="round" stroke-linejoin="round" data-badge-treatment="clean">
      <g transform="translate(-17.373333333333328,-18.759999999999998) scale(2.773333333333333)">
        <path d="M13 8H11V15H13V8Z" fill="#7D4533"/>
        <path d="M21 8H19V15H21V8Z" fill="#7D4533"/>
        <path d="M6.79089 28.3796L8.36926 20.5854H11.1907L8.59622 28.3796C7.8395 30.8443 6.499 29.8606 6.79089 28.3796Z" fill="#7D4533"/>
        <path d="M23.6307 20.5854L25.2091 28.3796C25.501 29.8606 24.1605 30.8443 23.4038 28.3796L20.8093 20.5854H23.6307Z" fill="#7D4533"/>
        <path d="M11.0009 20.5953L11.1221 25.9824C11.1659 27.515 12.4155 27.3156 12.4732 25.9824L13.0102 20.5953H11.0009Z" fill="#402A32"/>
        <path d="M21 20.5953L20.8788 25.9824C20.8349 27.515 19.5854 27.3156 19.5276 25.9824L18.9907 20.5953H21Z" fill="#402A32"/>
        <path d="M11 3C9.89543 3 9 3.89543 9 5V6C9 7.65685 10.3431 9 12 9H20C21.6569 9 23 7.65685 23 6V5C23 3.89543 22.1046 3 21 3H11Z" fill="#A56953"/>
        <path d="M11 14C9 14 7 17.5 7 19.25C7 20.2165 7.7835 21 8.75 21H23.25C24.2165 21 25 20.2165 25 19.25C25 17.5 23 14 21 14H11Z" fill="#A56953"/>
      </g>
    </g>
    <rect id="ITEM_5_TEXT_BG" x="-738.0" y="-156.0" width="416.0" height="204.0" rx="16" fill="var(--panel)" fill-opacity="0.94" stroke="var(--primary-text)" stroke-opacity="0.12" stroke-width="1.5"/>
    <rect x="-738.0" y="-156.0" width="416.0" height="204.0" rx="16" fill="url(#svga1791855-venn-label-sheen)" opacity="0.85"/>
    <text id="ITEM_5_HEAD" x="-340.0" y="-140.0" text-anchor="end" font-weight="bold" font-size="34" fill="var(--accent-2)" data-bg-id="ITEM_5_TEXT_BG" fill-opacity="1.0" stroke="none" style="font-size: 26px; font-family: 'Segoe UI Variable Display', 'Aptos Display', 'Inter', 'Segoe UI', Helvetica, Arial, sans-serif; font-weight: 700; font-kerning: normal; font-feature-settings: &quot;kern&quot; 1, &quot;liga&quot; 1; letter-spacing:-0.4px;" data-final-font-size="26">
      <tspan x="-340.0" dy="29.85px">Social Reinforcement</tspan>
    </text>
    <rect id="ITEM_5_HEAD_FRAME" x="-600" y="-140" width="260" height="48" fill="none"/>
    <text id="ITEM_5_BODY" x="-340.0" y="-88.0" text-anchor="end" font-size="20" fill="var(--primary-text)" data-bg-id="ITEM_5_TEXT_BG" style="font-size: 23px; font-family: 'Segoe UI Variable Text', 'Aptos', 'Inter', 'Segoe UI', Helvetica, Arial, sans-serif; font-weight: 400; font-kerning: normal; font-feature-settings: &quot;kern&quot; 1, &quot;liga&quot; 1;" data-final-font-size="23">
      <tspan x="-340.0" dy="31.82px">Group watches encouraged</tspan>
      <tspan x="-340.0" dy="26.45px">more frequent reporting</tspan>
    </text>
    <rect id="ITEM_5_BODY_FRAME" x="-720" y="-88" width="380" height="120" fill="none"/>
  </g>
  <text id="SOURCE_NOTE" x="134.0" y="1058.0" fill="var(--muted-text)" opacity="0.88" style="font-family: var(--font-family); font-size: 20px;">Source: Introduction</text>
</svg>
