<?xml version='1.0' encoding='utf-8'?>
<svg xmlns="http://www.w3.org/2000/svg" width="1920" height="1080" viewBox="0 0 1920 1080" data-theme="dark" data-semantic-intent="uncertain_compare" data-relation-type="hypothesis_comparison" data-site-visual-identity="heritage-amber">
  <style>
        @font-face {
            font-family: 'Inter';
            src: url('assets/fonts/Inter-Regular.ttf') format('truetype');
            font-weight: 400;
            font-style: normal;
            font-display: swap;
        }
        @font-face {
            font-family: 'Inter';
            src: url('assets/fonts/Inter-Bold.ttf') format('truetype');
            font-weight: 600;
            font-style: normal;
            font-display: swap;
        }
        @font-face {
            font-family: 'Inter';
            src: url('assets/fonts/Inter-Bold.ttf') format('truetype');
            font-weight: 800;
            font-style: normal;
            font-display: swap;
        }
        
:root {
    --background: #0f172a;
    --panel: #1e293b;
    --primary-text: #f1f5f9;
    --muted-text: #94a3b8;
    --inverse-text: #0f172a;
    --border: #334155;
    --shadow-color: #000000;
    --icon-pad-bg: #1e293b;
    --art-glow: #7dd3fc;
    --art-glow-opacity: 0.18;
    --art-sheen: #ffffff;
    --art-sheen-opacity: 0.18;
    --art-shadow: #000000;
    --art-shadow-opacity: 0.28;
    --art-muted-line: #64748b;
    --art-panel-tint: #1e293b;
    --semantic-risk: #f87171;
    --semantic-warning: #fb923c;
    --semantic-uncertain: #fbbf24;
    --semantic-evidence: #60a5fa;
    --semantic-claim: #c084fc;
    --semantic-positive: #4ade80;
    --semantic-outcome: #22d3ee;
    --font-family: 'Inter', 'Segoe UI', 'Kalam', Roboto, Helvetica, Arial, sans-serif;
    --radius-xl: 16px;
    --font-family-headline: 'Segoe UI Variable Display', 'Aptos Display', 'Inter', 'Segoe UI', Helvetica, Arial, sans-serif;
    --font-family-body: 'Segoe UI Variable Text', 'Aptos', 'Inter', 'Segoe UI', Helvetica, Arial, sans-serif;
    --font-heading: var(--font-family-headline);
    --font-body: var(--font-family-body);
    --font-size-h1: 64px;
    --font-size-h2: 42px;
    --font-size-h3: 29px;
    --font-size-body: 21px;
    --font-size-caption: 17px;
    --secondary-text: var(--muted-text);
    --panel-border: var(--border);
    --font-weight-normal: 400;
    --font-weight-medium: 500;
    --font-weight-semibold: 600;
    --font-weight-bold: 700;
    --spacing-gutter-pct: 0.07;
    --spacing-top-pct: 0.15;
    --spacing-bottom-pct: 0.07;
    --spacing-title-y-pct: 0.055;
    --accent-1: #fbbf24;
    --accent-2: #fb923c;
    --accent-3: #f59e0b;
    --accent-4: #fca5a5;
    --accent-5: #d6a66f;
    --accent-6: #7dd3fc;
}
:root[data-theme="dark"] {
    --background: #0f172a;
    --panel: #1e293b;
    --primary-text: #f1f5f9;
    --muted-text: #94a3b8;
    --inverse-text: #0f172a;
    --border: #334155;
    --shadow-color: #000000;
    --icon-pad-bg: #1e293b;
    --art-glow: #7dd3fc;
    --art-glow-opacity: 0.18;
    --art-sheen: #ffffff;
    --art-sheen-opacity: 0.18;
    --art-shadow: #000000;
    --art-shadow-opacity: 0.28;
    --art-muted-line: #64748b;
    --art-panel-tint: #1e293b;
    --semantic-risk: #f87171;
    --semantic-warning: #fb923c;
    --semantic-uncertain: #fbbf24;
    --semantic-evidence: #60a5fa;
    --semantic-claim: #c084fc;
    --semantic-positive: #4ade80;
    --semantic-outcome: #22d3ee;
    --accent-1: #fbbf24;
    --accent-2: #fb923c;
    --accent-3: #f59e0b;
    --accent-4: #fca5a5;
    --accent-5: #d6a66f;
    --accent-6: #7dd3fc;
}
:root[data-theme="light"] {
    --background: #f8fafc;
    --panel: #ffffff;
    --primary-text: #0f172a;
    --muted-text: #64748b;
    --inverse-text: #ffffff;
    --border: #e2e8f0;
    --shadow-color: #000000;
    --icon-pad-bg: #1e293b;
    --art-glow: #0891b2;
    --art-glow-opacity: 0.10;
    --art-sheen: #ffffff;
    --art-sheen-opacity: 0.34;
    --art-shadow: #0f172a;
    --art-shadow-opacity: 0.14;
    --art-muted-line: #94a3b8;
    --art-panel-tint: #f1f5f9;
    --semantic-risk: #b91c1c;
    --semantic-warning: #c2410c;
    --semantic-uncertain: #a16207;
    --semantic-evidence: #1d4ed8;
    --semantic-claim: #6d28d9;
    --semantic-positive: #15803d;
    --semantic-outcome: #0e7490;
    --accent-1: #a16207;
    --accent-2: #c2410c;
    --accent-3: #b45309;
    --accent-4: #b91c1c;
    --accent-5: #92400e;
    --accent-6: #0369a1;
}</style>
  <rect x="0" y="0" width="1.92E+3" height="1.08E+3" fill="#252a34" stroke="none" id="programmatic_background"/>
  <line id="HEADER_DECOR" x1="960.0" x2="1080.0" y1="125.0" y2="125.0" stroke="var(--accent-1)" stroke-width="6" stroke-linecap="round"/>
  <defs>
    <pattern id="svgf60603b3-napkin-hatch" patternUnits="userSpaceOnUse" width="12" height="12">
      <path d="M -3 12 L 12 -3 M 0 15 L 15 0" fill="none" stroke="var(--primary-text)" stroke-width="1" stroke-opacity="0.05"/>
    </pattern>
    <filter id="svgf60603b3-soft-shadow" x="-30%" y="-30%" width="160%" height="160%">
      <feDropShadow dx="0" dy="4" stdDeviation="10" flood-color="#000000" flood-opacity="0.2"/>
    </filter>
    <radialGradient id="svgf60603b3-universal-edge-vignette" cx="50%" cy="50%" r="72%">
      <stop offset="0%" stop-color="var(--background)" stop-opacity="0"/>
      <stop offset="72%" stop-color="var(--background)" stop-opacity="0.12"/>
      <stop offset="100%" stop-color="var(--primary-text)" stop-opacity="0.08"/>
    </radialGradient>
    <linearGradient id="svgf60603b3-universal-surface-sheen" x1="0%" y1="0%" x2="100%" y2="100%">
      <stop offset="0%" stop-color="var(--art-sheen)" stop-opacity="var(--art-sheen-opacity)"/>
      <stop offset="46%" stop-color="var(--art-sheen)" stop-opacity="0.035"/>
      <stop offset="100%" stop-color="var(--art-panel-tint)" stop-opacity="0.14"/>
    </linearGradient>
    <radialGradient id="svgf60603b3-universal-icon-aura" cx="50%" cy="42%" r="64%">
      <stop offset="0%" stop-color="var(--art-glow)" stop-opacity="var(--art-glow-opacity)"/>
      <stop offset="100%" stop-color="var(--background)" stop-opacity="0"/>
    </radialGradient>
    <linearGradient id="svgf60603b3-comparison-card-depth" x1="0%" y1="0%" x2="0%" y2="100%">
      <stop offset="0%" stop-color="var(--art-sheen)" stop-opacity="0.30"/>
      <stop offset="55%" stop-color="var(--art-sheen)" stop-opacity="0.035"/>
      <stop offset="100%" stop-color="var(--art-shadow)" stop-opacity="0.10"/>
    </linearGradient>
    <filter id="svgf60603b3-text-glow" x="-20%" y="-20%" width="140%" height="140%">
      <feDropShadow dx="0" dy="0" stdDeviation="2" flood-color="#000000" flood-opacity="0.4"/>
    </filter>
    <filter id="svgf60603b3-shadow" x="-30%" y="-30%" width="160%" height="160%">
      <feDropShadow dx="0" dy="2" stdDeviation="3" flood-color="#000000" flood-opacity="0.08"/>
      <feDropShadow dx="0" dy="6" stdDeviation="10" flood-color="#000000" flood-opacity="0.12"/>
    </filter>
    <marker id="svgf60603b3-arrowhead" markerWidth="10" markerHeight="7" refX="9" refY="3.5" orient="auto" markerUnits="strokeWidth">
      <polygon points="0 0, 10 3.5, 0 7" fill="var(--muted-text)" opacity="0.6"/>
    </marker>
  </defs>
  <rect id="CANVAS_BG" width="100%" height="100%" fill="var(--background)"/>
  <rect width="100%" height="100%" fill="url(#svgf60603b3-napkin-hatch)"/>
  <rect id="UNIVERSAL_EDGE_VIGNETTE" width="100%" height="100%" fill="url(#svgf60603b3-universal-edge-vignette)" opacity="0.62"/>
  <text id="TITLE" x="960.0" y="59" text-anchor="middle" font-size="60" font-weight="800" fill="#f1f5f9" style="font-size: 69px; font-family: 'Segoe UI Variable Display', 'Aptos Display', 'Inter', 'Segoe UI', Helvetica, Arial, sans-serif; font-weight: 800; font-kerning: normal; font-feature-settings: &quot;kern&quot; 1, &quot;liga&quot; 1; letter-spacing:-1.2px;" data-final-font-size="69">
    <tspan x="960.0" dy="70.47px">Cáceres Sighting Interpretations</tspan>
  </text>
  <rect id="TITLE_FRAME" x="134" y="59" width="1652" height="103" fill="none"/>
  <rect x="110" y="180" width="1700" height="770" rx="38" fill="var(--panel)" fill-opacity="0.28" stroke="var(--muted-text)" stroke-width="2" opacity="0.92"/>
  <line x1="960" y1="225" x2="960" y2="545" stroke="var(--muted-text)" stroke-width="4" stroke-dasharray="10 10" opacity="0.35"/>
  <rect x="878" y="370" width="164" height="34" rx="17" fill="var(--background)" stroke="var(--muted-text)" stroke-width="2" opacity="0.9"/>
  <text x="960" y="394" text-anchor="middle" font-size="20" font-weight="700" fill="var(--primary-text)">Tradeoffs</text>
  <g filter="url(#svgf60603b3-soft-shadow)">
    <rect id="ITEM_1_BG" x="150" y="230" width="700" height="300" rx="30" fill="var(--panel)" fill-opacity="0.97" stroke="var(--accent-1)" stroke-width="3"/>
    <rect x="150" y="230" width="700" height="18" rx="9" fill="var(--accent-1)" fill-opacity="0.55"/>
    <rect x="392" y="258" width="380" height="34" rx="17" fill="var(--accent-1)" fill-opacity="0.12"/>
    <circle id="ITEM_1_PAD" cx="250" cy="322" r="52" fill="var(--icon-pad-bg)" opacity="1" fill-opacity="0.9" stroke-width="2" stroke="var(--semantic-uncertain)" stroke-opacity="0.72" data-badge-layer="pad"/>
    <circle id="ITEM_1_PAD_INNER" cx="250" cy="322" r="40.56" fill="var(--semantic-uncertain)" fill-opacity="0.12" stroke="none" data-badge-layer="tint"/>
    <circle cx="250" cy="322" r="42" fill="none" stroke="var(--accent-1)" stroke-width="3" stroke-dasharray="6 4" display="none" data-suppressed-decoration="redundant-badge-ring"/>
    <g id="ITEM_1_ICON" transform="translate(212, 284)" data-icon-size="76" stroke-linecap="round" stroke-linejoin="round" data-badge-treatment="clean">
      <g transform="translate(-5.997288135593223,-5.997288135593223) scale(3.666440677966102)" vector-effect="non-scaling-stroke" stroke-width="2.62" stroke-linecap="round" stroke-linejoin="round" stroke-opacity="1.0">
        <path d="M19.07 4.93A10 10 0 0 0 6.99 3.34" vector-effect="non-scaling-stroke" fill="none" stroke="#f1f5f9"/>
        <path d="M4 6h.01" vector-effect="non-scaling-stroke" fill="none" stroke="#f1f5f9"/>
        <path d="M2.29 9.62A10 10 0 1 0 21.31 8.35" vector-effect="non-scaling-stroke" fill="none" stroke="#f1f5f9"/>
        <path d="M16.24 7.76A6 6 0 1 0 8.23 16.67" vector-effect="non-scaling-stroke" fill="none" stroke="#f1f5f9"/>
        <path d="M12 18h.01" vector-effect="non-scaling-stroke" fill="none" stroke="#f1f5f9"/>
        <path d="M17.99 11.66A6 6 0 0 1 15.77 16.67" vector-effect="non-scaling-stroke" fill="none" stroke="#f1f5f9"/>
        <circle cx="12" cy="12" r="2" vector-effect="non-scaling-stroke" fill="none" stroke="#f1f5f9"/>
        <path d="m13.41 10.59 5.66-5.66" vector-effect="non-scaling-stroke" fill="none" stroke="#f1f5f9"/>
      </g>
    </g>
    <rect id="ITEM_1_TEXT_BG" x="330.0" y="266.0" width="468.0" height="226.0" rx="22" fill="var(--panel)" fill-opacity="0.94" stroke="var(--primary-text)" stroke-opacity="0.12" stroke-width="1.5"/>
    <rect id="COMPARISON_COLUMNS_ART_PANEL_SHEEN_1" x="330.0" y="266.0" width="468.0" height="226.0" rx="16" fill="var(--semantic-uncertain)" opacity="0.82" fill-opacity="0.15" stroke="none"/>
    <text id="ITEM_1_HEAD" x="564.0" y="282.0" text-anchor="middle" font-size="32" font-weight="800" fill="var(--primary-text)" data-bg-id="ITEM_1_TEXT_BG" fill-opacity="1.0" stroke="none" style="font-size: 31px; font-family: 'Segoe UI Variable Display', 'Aptos Display', 'Inter', 'Segoe UI', Helvetica, Arial, sans-serif; font-weight: 700; font-kerning: normal; font-feature-settings: &quot;kern&quot; 1, &quot;liga&quot; 1; letter-spacing:-0.4px;" data-final-font-size="31">
      <tspan x="564.0" dy="40.77px">Military Records</tspan>
    </text>
    <rect id="ITEM_1_HEAD_FRAME" x="364" y="282" width="400" height="52" fill="none"/>
    <text id="ITEM_1_BODY" x="564.0" y="340.0" text-anchor="middle" font-size="19" fill="var(--primary-text)" data-bg-id="ITEM_1_TEXT_BG" style="font-size: 23px; font-family: 'Segoe UI Variable Text', 'Aptos', 'Inter', 'Segoe UI', Helvetica, Arial, sans-serif; font-weight: 400; font-kerning: normal; font-feature-settings: &quot;kern&quot; 1, &quot;liga&quot; 1;" data-final-font-size="23">
      <tspan x="564.0" dy="41.55px">Official dossiers provide structured</tspan>
      <tspan x="564.0" dy="26.45px">aviation intelligence data</tspan>
    </text>
    <rect id="ITEM_1_BODY_FRAME" x="350" y="340" width="428" height="136" fill="none"/>
  </g>
  <g filter="url(#svgf60603b3-soft-shadow)">
    <rect id="ITEM_2_BG" x="1070" y="230" width="700" height="300" rx="30" fill="var(--panel)" fill-opacity="0.97" stroke="var(--accent-2)" stroke-width="3"/>
    <rect x="1070" y="230" width="700" height="18" rx="9" fill="var(--accent-2)" fill-opacity="0.55"/>
    <rect x="1312" y="258" width="380" height="34" rx="17" fill="var(--accent-2)" fill-opacity="0.12"/>
    <circle id="ITEM_2_PAD" cx="1170" cy="322" r="52" fill="var(--icon-pad-bg)" opacity="1" fill-opacity="0.9" stroke-width="2" stroke="var(--semantic-evidence)" stroke-opacity="0.72" data-badge-layer="pad"/>
    <circle id="ITEM_2_PAD_INNER" cx="1170" cy="322" r="40.56" fill="var(--semantic-evidence)" fill-opacity="0.12" stroke="none" data-badge-layer="tint"/>
    <circle cx="1170" cy="322" r="42" fill="none" stroke="var(--accent-2)" stroke-width="3" stroke-dasharray="6 4" display="none" data-suppressed-decoration="redundant-badge-ring"/>
    <g id="ITEM_2_ICON" transform="translate(1132, 284)" data-icon-size="76" stroke-linecap="round" stroke-linejoin="round" data-badge-treatment="clean">
      <g transform="translate(-10.071111111111122,-10.071111111111122) scale(4.005925925925927)" vector-effect="non-scaling-stroke" stroke-width="2.62" stroke-linecap="round" stroke-linejoin="round" stroke-opacity="1.0">
        <path d="M7 15h10v4a2 2 0 0 1 -2 2h-6a2 2 0 0 1 -2 -2v-4z" vector-effect="non-scaling-stroke" fill="none" stroke="#f1f5f9"/>
        <path d="M12 9a6 6 0 0 0 -6 -6h-3v2a6 6 0 0 0 6 6h3" vector-effect="non-scaling-stroke" fill="none" stroke="#f1f5f9"/>
        <path d="M12 11a6 6 0 0 1 6 -6h3v1a6 6 0 0 1 -6 6h-3" vector-effect="non-scaling-stroke" fill="none" stroke="#f1f5f9"/>
        <path d="M12 15l0 -6" vector-effect="non-scaling-stroke" fill="none" stroke="#f1f5f9"/>
      </g>
    </g>
    <rect id="ITEM_2_TEXT_BG" x="1250.0" y="266.0" width="468.0" height="226.0" rx="22" fill="var(--panel)" fill-opacity="0.94" stroke="var(--primary-text)" stroke-opacity="0.12" stroke-width="1.5"/>
    <rect id="COMPARISON_COLUMNS_ART_PANEL_SHEEN_2" x="1250.0" y="266.0" width="468.0" height="226.0" rx="16" fill="var(--semantic-evidence)" opacity="0.82" fill-opacity="0.15" stroke="none"/>
    <text id="ITEM_2_HEAD" x="1484.0" y="282.0" text-anchor="middle" font-size="32" font-weight="800" fill="var(--primary-text)" data-bg-id="ITEM_2_TEXT_BG" fill-opacity="1.0" stroke="none" style="font-size: 31px; font-family: 'Segoe UI Variable Display', 'Aptos Display', 'Inter', 'Segoe UI', Helvetica, Arial, sans-serif; font-weight: 700; font-kerning: normal; font-feature-settings: &quot;kern&quot; 1, &quot;liga&quot; 1; letter-spacing:-0.4px;" data-final-font-size="31">
      <tspan x="1484.0" dy="40.77px">Rural Folklore</tspan>
    </text>
    <rect id="ITEM_2_HEAD_FRAME" x="1284" y="282" width="400" height="52" fill="none"/>
    <text id="ITEM_2_BODY" x="1484.0" y="340.0" text-anchor="middle" font-size="19" fill="var(--primary-text)" data-bg-id="ITEM_2_TEXT_BG" style="font-size: 23px; font-family: 'Segoe UI Variable Text', 'Aptos', 'Inter', 'Segoe UI', Helvetica, Arial, sans-serif; font-weight: 400; font-kerning: normal; font-feature-settings: &quot;kern&quot; 1, &quot;liga&quot; 1;" data-final-font-size="23">
      <tspan x="1484.0" dy="41.55px">Oral traditions blend modern sightings</tspan>
      <tspan x="1484.0" dy="26.45px">with ancient legends</tspan>
    </text>
    <rect id="ITEM_2_BODY_FRAME" x="1270" y="340" width="428" height="136" fill="none"/>
  </g>
  <g filter="url(#svgf60603b3-soft-shadow)">
    <rect id="ITEM_3_BG" x="150" y="610" width="470" height="270" rx="26" fill="var(--panel)" fill-opacity="0.97" stroke="var(--accent-3)" stroke-width="3"/>
    <rect x="150" y="610" width="470" height="16" rx="8" fill="var(--accent-3)" fill-opacity="0.55"/>
    <rect x="280" y="646" width="260" height="26" rx="13" fill="var(--accent-3)" fill-opacity="0.12"/>
    <circle id="ITEM_3_PAD" cx="228" cy="692" r="46" fill="var(--icon-pad-bg)" opacity="1" fill-opacity="0.9" stroke-width="2" stroke="var(--semantic-uncertain)" stroke-opacity="0.72" data-badge-layer="pad"/>
    <circle id="ITEM_3_PAD_INNER" cx="228" cy="692" r="35.88" fill="var(--semantic-uncertain)" fill-opacity="0.12" stroke="none" data-badge-layer="tint"/>
    <circle cx="228" cy="692" r="37" fill="none" stroke="var(--accent-3)" stroke-width="3" stroke-dasharray="6 4" display="none" data-suppressed-decoration="redundant-badge-ring"/>
    <g id="ITEM_3_ICON" transform="translate(194, 658)" data-icon-size="68" stroke-linecap="round" stroke-linejoin="round" data-badge-treatment="clean">
      <g transform="translate(-8.230442477876116,-6.325309734513278) scale(2.540176991150443)">
        <path d="M16.25 29.25C16.25 29.6642 15.9143 30 15.5 30C15.0858 30 14.75 29.6642 14.75 29.25V18.2847L6.35413 29.6945C6.10863 30.0281 5.63916 30.0996 5.30554 29.8541C4.97192 29.6086 4.90047 29.1391 5.14597 28.8055L13.8421 16.9877C13.3669 16.9119 13 16.4964 13 16C13 15.4505 13.4497 15 13.9983 15H14.75V11.75C14.75 11.3358 15.0858 11 15.5 11C15.9143 11 16.25 11.3358 16.25 11.75V15H17.0018C17.5504 15 18 15.4505 18 16C18 16.421 17.7361 16.7839 17.366 16.9306L26.1041 28.8055C26.3496 29.1391 26.2782 29.6086 25.9446 29.8541C25.6109 30.0996 25.1415 30.0281 24.896 29.6945L16.25 17.9449V29.25Z" fill="#7167A4"/>
        <path d="M3.22683 4.27809C2.6088 5.92946 3.30622 7.78583 4.80973 8.60757L5.74923 8.95918L7.99999 8.00013L8.99999 4.00013L8.19939 2.40199L7.26328 2.05165C5.5897 1.68436 3.84485 2.62671 3.22683 4.27809Z" fill="#AEDDFF"/>
        <path d="M22.8343 8.94678L27.5555 10.7137L29 13.0001L28 15.0001L25.7687 15.3837L21.0817 13.6296L20 10.5001L22.8343 8.94678Z" fill="#D3D3D3"/>
        <path d="M8.59557 3.94216L11.9373 3.80078L23.1846 8.01009L20.731 14.566L9.48157 10.3559L7.48633 7.72365L8.59557 3.94216Z" fill="#BEBEBE"/>
        <path d="M11.9459 3.80389L8.19965 2.40186L5.74609 8.95777L9.49233 10.3598L11.9459 3.80389Z" fill="#5235A6"/>
        <path d="M29.39 11.4001L27.5169 10.6991L25.7644 15.3819L27.6375 16.0829C28.1547 16.2765 28.731 16.0141 28.9246 15.4969L29.9761 12.6872C30.1697 12.1699 29.9073 11.5937 29.39 11.4001Z" fill="#5235A6"/>
      </g>
    </g>
    <rect id="ITEM_3_TEXT_BG" x="294.0" y="674.0" width="300.0" height="188.0" rx="22" fill="var(--panel)" fill-opacity="0.94" stroke="var(--primary-text)" stroke-opacity="0.12" stroke-width="1.5"/>
    <rect id="COMPARISON_COLUMNS_ART_PANEL_SHEEN_3" x="294.0" y="674.0" width="300.0" height="188.0" rx="16" fill="var(--semantic-uncertain)" opacity="0.82" fill-opacity="0.15" stroke="none"/>
    <text id="ITEM_3_HEAD" x="444.0" y="690.0" text-anchor="middle" font-size="28" font-weight="800" fill="var(--primary-text)" data-bg-id="ITEM_3_TEXT_BG" fill-opacity="1.0" stroke="none" style="font-size: 31px; font-family: 'Segoe UI Variable Display', 'Aptos Display', 'Inter', 'Segoe UI', Helvetica, Arial, sans-serif; font-weight: 700; font-kerning: normal; font-feature-settings: &quot;kern&quot; 1, &quot;liga&quot; 1; letter-spacing:-0.4px;" data-final-font-size="31">
      <tspan x="444.0" dy="37.05px">Celestial Events</tspan>
    </text>
    <rect id="ITEM_3_HEAD_FRAME" x="310" y="690" width="268" height="46" fill="none"/>
    <text id="ITEM_3_BODY" x="444.0" y="742.0" text-anchor="middle" font-size="18" fill="var(--primary-text)" data-bg-id="ITEM_3_TEXT_BG" style="font-size: 23px; font-family: 'Segoe UI Variable Text', 'Aptos', 'Inter', 'Segoe UI', Helvetica, Arial, sans-serif; font-weight: 400; font-kerning: normal; font-feature-settings: &quot;kern&quot; 1, &quot;liga&quot; 1;" data-final-font-size="23">
      <tspan x="444.0" dy="33.12px">Meteors and fireballs produce</tspan>
      <tspan x="444.0" dy="26.45px">dramatic visual flashes</tspan>
    </text>
    <rect id="ITEM_3_BODY_FRAME" x="304" y="742" width="280" height="102" fill="none"/>
  </g>
  <g filter="url(#svgf60603b3-soft-shadow)">
    <rect id="ITEM_4_BG" x="725" y="610" width="470" height="270" rx="26" fill="var(--panel)" fill-opacity="0.97" stroke="var(--accent-4)" stroke-width="3"/>
    <rect x="725" y="610" width="470" height="16" rx="8" fill="var(--accent-4)" fill-opacity="0.55"/>
    <rect x="855" y="646" width="260" height="26" rx="13" fill="var(--accent-4)" fill-opacity="0.12"/>
    <circle id="ITEM_4_PAD" cx="803" cy="692" r="46" fill="var(--icon-pad-bg)" opacity="1" fill-opacity="0.9" stroke-width="2" stroke="var(--semantic-evidence)" stroke-opacity="0.72" data-badge-layer="pad"/>
    <circle id="ITEM_4_PAD_INNER" cx="803" cy="692" r="35.88" fill="var(--semantic-evidence)" fill-opacity="0.12" stroke="none" data-badge-layer="tint"/>
    <circle cx="803" cy="692" r="37" fill="none" stroke="var(--accent-4)" stroke-width="3" stroke-dasharray="6 4" display="none" data-suppressed-decoration="redundant-badge-ring"/>
    <g id="ITEM_4_ICON" transform="translate(769, 658)" data-icon-size="68" stroke-linecap="round" stroke-linejoin="round" data-badge-treatment="clean">
      <g transform="translate(-7.005714285714289,-15.975714285714293) scale(2.562857142857143)">
        <path d="M24.64 10H15.09C15.05 10 15.01 10 14.98 10C13.92 10.04 12.94 10.61 12.35 11.49L12 12L10.5659 14.985L7.98 18H4.88C3.59 18 2.5 18.84 2.13 20L2.39603 21.5L2 23V24L16 25L30 24V19.51C30 19 29.95 18.49 29.86 18L28.5453 15.2111C28.5453 15.2111 27.78 12.1 27.76 12.04C27.22 10.81 26 10 24.64 10Z" fill="#F8312F"/>
        <path d="M28.61 26H3.39C2.62 26 2 25.38 2 24.61V24H30V24.61C30 25.38 29.38 26 28.61 26Z" fill="#9B9B9B"/>
        <path d="M12 12L7.98999 18H15.03C15.56 18 15.99 17.57 15.99 17.04V12.96C15.99 12.43 15.56 12 15.03 12H12ZM23.01 18H18.97C18.44 18 18.01 17.57 18.01 17.04V12.96C18.01 12.43 18.44 12 18.97 12H23.01C23.54 12 23.97 12.43 23.97 12.96V17.04C23.97 17.57 23.54 18 23.01 18ZM27.83 12.21L29.47 16.58C29.64 17.04 29.77 17.52 29.85 18H26.94C26.41 18 25.98 17.57 25.98 17.04V13.04C25.98 12.47 26.45 12 27.02 12H27.74C27.74 12 27.81 12.15 27.83 12.21Z" fill="#26C9FC"/>
        <path d="M3.99 22V21C3.99 20.45 3.54 20 2.99 20H2.14C2.04 20.29 2 20.6 2 21.27V23H2.99C3.54 23 3.99 22.55 3.99 22Z" fill="#E6E6E6"/>
        <path d="M12.02 25.5C12.02 27.433 10.453 29 8.52002 29C6.58702 29 5.02002 27.433 5.02002 25.5C5.02002 23.567 6.58702 22 8.52002 22C10.453 22 12.02 23.567 12.02 25.5ZM27 25.5C27 27.433 25.433 29 23.5 29C21.567 29 20 27.433 20 25.5C20 23.567 21.567 22 23.5 22C25.433 22 27 23.567 27 25.5Z" fill="#321B41"/>
        <path d="M10 25.5C10 26.3284 9.32843 27 8.5 27C7.67157 27 7 26.3284 7 25.5C7 24.6716 7.67157 24 8.5 24C9.32843 24 10 24.6716 10 25.5ZM25 25.5C25 26.3284 24.3284 27 23.5 27C22.6716 27 22 26.3284 22 25.5C22 24.6716 22.6716 24 23.5 24C24.3284 24 25 24.6716 25 25.5Z" fill="#E6E6E6"/>
        <path d="M29.99 20H29.49C28.64 20 27.95 20.71 27.99 21.57C28.03 22.38 28.73 23 29.54 23H29.99V20Z" fill="#CA0B4A"/>
        <path d="M11.13 19H11.52C11.79 19 12 18.78 12 18.52V16.48C12 16.21 11.78 16 11.52 16H11.13C10.51 16 10 16.51 10 17.13V17.87C10 18.49 10.51 19 11.13 19Z" fill="#321B41"/>
      </g>
    </g>
    <rect id="ITEM_4_TEXT_BG" x="869.0" y="674.0" width="300.0" height="188.0" rx="22" fill="var(--panel)" fill-opacity="0.94" stroke="var(--primary-text)" stroke-opacity="0.12" stroke-width="1.5"/>
    <rect id="COMPARISON_COLUMNS_ART_PANEL_SHEEN_4" x="869.0" y="674.0" width="300.0" height="188.0" rx="16" fill="var(--semantic-evidence)" opacity="0.82" fill-opacity="0.15" stroke="none"/>
    <text id="ITEM_4_HEAD" x="1019.0" y="690.0" text-anchor="middle" font-size="28" font-weight="800" fill="var(--primary-text)" data-bg-id="ITEM_4_TEXT_BG" fill-opacity="1.0" stroke="none" style="font-size: 31px; font-family: 'Segoe UI Variable Display', 'Aptos Display', 'Inter', 'Segoe UI', Helvetica, Arial, sans-serif; font-weight: 700; font-kerning: normal; font-feature-settings: &quot;kern&quot; 1, &quot;liga&quot; 1; letter-spacing:-0.4px;" data-final-font-size="31">
      <tspan x="1019.0" dy="37.05px">Optical Illusions</tspan>
    </text>
    <rect id="ITEM_4_HEAD_FRAME" x="885" y="690" width="268" height="46" fill="none"/>
    <text id="ITEM_4_BODY" x="1019.0" y="742.0" text-anchor="middle" font-size="18" fill="var(--primary-text)" data-bg-id="ITEM_4_TEXT_BG" style="font-size: 23px; font-family: 'Segoe UI Variable Text', 'Aptos', 'Inter', 'Segoe UI', Helvetica, Arial, sans-serif; font-weight: 400; font-kerning: normal; font-feature-settings: &quot;kern&quot; 1, &quot;liga&quot; 1;" data-final-font-size="23">
      <tspan x="1019.0" dy="33.12px">Planets and stars mimic</tspan>
      <tspan x="1019.0" dy="26.45px">moving lights from cars</tspan>
    </text>
    <rect id="ITEM_4_BODY_FRAME" x="879" y="742" width="280" height="102" fill="none"/>
  </g>
  <g filter="url(#svgf60603b3-soft-shadow)">
    <rect id="ITEM_5_BG" x="1300" y="610" width="470" height="270" rx="26" fill="var(--panel)" fill-opacity="0.97" stroke="var(--accent-5)" stroke-width="3"/>
    <rect x="1300" y="610" width="470" height="16" rx="8" fill="var(--accent-5)" fill-opacity="0.55"/>
    <rect x="1430" y="646" width="260" height="26" rx="13" fill="var(--accent-5)" fill-opacity="0.12"/>
    <circle id="ITEM_5_PAD" cx="1378" cy="692" r="46" fill="var(--icon-pad-bg)" opacity="1" fill-opacity="0.9" stroke-width="2" stroke="var(--semantic-uncertain)" stroke-opacity="0.72" data-badge-layer="pad"/>
    <circle id="ITEM_5_PAD_INNER" cx="1378" cy="692" r="35.88" fill="var(--semantic-uncertain)" fill-opacity="0.12" stroke="none" data-badge-layer="tint"/>
    <circle cx="1378" cy="692" r="37" fill="none" stroke="var(--accent-5)" stroke-width="3" stroke-dasharray="6 4" display="none" data-suppressed-decoration="redundant-badge-ring"/>
    <g id="ITEM_5_ICON" transform="translate(1344, 658)" data-icon-size="68" stroke-linecap="round" stroke-linejoin="round" data-badge-treatment="clean">
      <g transform="translate(-8.524444444444448,-8.524444444444448) scale(3.543703703703704)" vector-effect="non-scaling-stroke" stroke-width="2.53" stroke-linecap="round" stroke-linejoin="round" stroke-opacity="1.0">
        <path d="M10 10 7 7" vector-effect="non-scaling-stroke" fill="none" stroke="#f1f5f9"/>
        <path d="m10 14-3 3" vector-effect="non-scaling-stroke" fill="none" stroke="#f1f5f9"/>
        <path d="m14 10 3-3" vector-effect="non-scaling-stroke" fill="none" stroke="#f1f5f9"/>
        <path d="m14 14 3 3" vector-effect="non-scaling-stroke" fill="none" stroke="#f1f5f9"/>
        <path d="M14.205 4.139a4 4 0 1 1 5.439 5.863" vector-effect="non-scaling-stroke" fill="none" stroke="#f1f5f9"/>
        <path d="M19.637 14a4 4 0 1 1-5.432 5.868" vector-effect="non-scaling-stroke" fill="none" stroke="#f1f5f9"/>
        <path d="M4.367 10a4 4 0 1 1 5.438-5.862" vector-effect="non-scaling-stroke" fill="none" stroke="#f1f5f9"/>
        <path d="M9.795 19.862a4 4 0 1 1-5.429-5.873" vector-effect="non-scaling-stroke" fill="none" stroke="#f1f5f9"/>
        <rect x="10" y="8" width="4" height="8" rx="1" vector-effect="non-scaling-stroke" fill="none" stroke="#f1f5f9"/>
      </g>
    </g>
    <rect id="ITEM_5_TEXT_BG" x="1444.0" y="674.0" width="300.0" height="188.0" rx="22" fill="var(--panel)" fill-opacity="0.94" stroke="var(--primary-text)" stroke-opacity="0.12" stroke-width="1.5"/>
    <rect id="COMPARISON_COLUMNS_ART_PANEL_SHEEN_5" x="1444.0" y="674.0" width="300.0" height="188.0" rx="16" fill="var(--semantic-uncertain)" opacity="0.82" fill-opacity="0.15" stroke="none"/>
    <text id="ITEM_5_HEAD" x="1594.0" y="690.0" text-anchor="middle" font-size="28" font-weight="800" fill="var(--primary-text)" data-bg-id="ITEM_5_TEXT_BG" fill-opacity="1.0" stroke="none" style="font-size: 31px; font-family: 'Segoe UI Variable Display', 'Aptos Display', 'Inter', 'Segoe UI', Helvetica, Arial, sans-serif; font-weight: 700; font-kerning: normal; font-feature-settings: &quot;kern&quot; 1, &quot;liga&quot; 1; letter-spacing:-0.4px;" data-final-font-size="31">
      <tspan x="1594.0" dy="37.05px">Modern Technology</tspan>
    </text>
    <rect id="ITEM_5_HEAD_FRAME" x="1460" y="690" width="268" height="46" fill="none"/>
    <text id="ITEM_5_BODY" x="1594.0" y="742.0" text-anchor="middle" font-size="18" fill="var(--primary-text)" data-bg-id="ITEM_5_TEXT_BG" style="font-size: 23px; font-family: 'Segoe UI Variable Text', 'Aptos', 'Inter', 'Segoe UI', Helvetica, Arial, sans-serif; font-weight: 400; font-kerning: normal; font-feature-settings: &quot;kern&quot; 1, &quot;liga&quot; 1;" data-final-font-size="23">
      <tspan x="1594.0" dy="33.12px">Drones and satellites create</tspan>
      <tspan x="1594.0" dy="26.45px">unfamiliar aerial patterns</tspan>
    </text>
    <rect id="ITEM_5_BODY_FRAME" x="1454" y="742" width="280" height="102" fill="none"/>
  </g>
  <text id="SOURCE_NOTE" x="134.0" y="1058.0" fill="var(--muted-text)" opacity="0.88" style="font-family: var(--font-family); font-size: 20px;">Source: Introduction</text>
  <text id="EDITORIAL_NOTE" x="1786.0" y="1058.0" fill="var(--semantic-uncertain)" opacity="0.92" style="font-family: var(--font-family); font-size: 20px;" text-anchor="end">Interpretations remain disputed; wording reflects source uncertainty.</text>
</svg>
