<?xml version='1.0' encoding='utf-8'?>
<svg xmlns="http://www.w3.org/2000/svg" width="1920" height="1080" viewBox="0 0 1920 1080" data-theme="dark" data-semantic-intent="compare" data-relation-type="comparison" data-site-visual-identity="heritage-amber">
  <style>
        @font-face {
            font-family: 'Inter';
            src: url('assets/fonts/Inter-Regular.ttf') format('truetype');
            font-weight: 400;
            font-style: normal;
            font-display: swap;
        }
        @font-face {
            font-family: 'Inter';
            src: url('assets/fonts/Inter-Bold.ttf') format('truetype');
            font-weight: 600;
            font-style: normal;
            font-display: swap;
        }
        @font-face {
            font-family: 'Inter';
            src: url('assets/fonts/Inter-Bold.ttf') format('truetype');
            font-weight: 800;
            font-style: normal;
            font-display: swap;
        }
        
:root {
    --background: #0f172a;
    --panel: #1e293b;
    --primary-text: #f1f5f9;
    --muted-text: #94a3b8;
    --inverse-text: #0f172a;
    --border: #334155;
    --shadow-color: #000000;
    --icon-pad-bg: #1e293b;
    --art-glow: #7dd3fc;
    --art-glow-opacity: 0.18;
    --art-sheen: #ffffff;
    --art-sheen-opacity: 0.18;
    --art-shadow: #000000;
    --art-shadow-opacity: 0.28;
    --art-muted-line: #64748b;
    --art-panel-tint: #1e293b;
    --semantic-risk: #f87171;
    --semantic-warning: #fb923c;
    --semantic-uncertain: #fbbf24;
    --semantic-evidence: #60a5fa;
    --semantic-claim: #c084fc;
    --semantic-positive: #4ade80;
    --semantic-outcome: #22d3ee;
    --font-family: 'Inter', 'Segoe UI', 'Kalam', Roboto, Helvetica, Arial, sans-serif;
    --radius-xl: 16px;
    --font-family-headline: 'Segoe UI Variable Display', 'Aptos Display', 'Inter', 'Segoe UI', Helvetica, Arial, sans-serif;
    --font-family-body: 'Segoe UI Variable Text', 'Aptos', 'Inter', 'Segoe UI', Helvetica, Arial, sans-serif;
    --font-heading: var(--font-family-headline);
    --font-body: var(--font-family-body);
    --font-size-h1: 64px;
    --font-size-h2: 42px;
    --font-size-h3: 29px;
    --font-size-body: 21px;
    --font-size-caption: 17px;
    --secondary-text: var(--muted-text);
    --panel-border: var(--border);
    --font-weight-normal: 400;
    --font-weight-medium: 500;
    --font-weight-semibold: 600;
    --font-weight-bold: 700;
    --spacing-gutter-pct: 0.07;
    --spacing-top-pct: 0.15;
    --spacing-bottom-pct: 0.07;
    --spacing-title-y-pct: 0.055;
    --accent-1: #fbbf24;
    --accent-2: #fb923c;
    --accent-3: #f59e0b;
    --accent-4: #fca5a5;
    --accent-5: #d6a66f;
    --accent-6: #7dd3fc;
}
:root[data-theme="dark"] {
    --background: #0f172a;
    --panel: #1e293b;
    --primary-text: #f1f5f9;
    --muted-text: #94a3b8;
    --inverse-text: #0f172a;
    --border: #334155;
    --shadow-color: #000000;
    --icon-pad-bg: #1e293b;
    --art-glow: #7dd3fc;
    --art-glow-opacity: 0.18;
    --art-sheen: #ffffff;
    --art-sheen-opacity: 0.18;
    --art-shadow: #000000;
    --art-shadow-opacity: 0.28;
    --art-muted-line: #64748b;
    --art-panel-tint: #1e293b;
    --semantic-risk: #f87171;
    --semantic-warning: #fb923c;
    --semantic-uncertain: #fbbf24;
    --semantic-evidence: #60a5fa;
    --semantic-claim: #c084fc;
    --semantic-positive: #4ade80;
    --semantic-outcome: #22d3ee;
    --accent-1: #fbbf24;
    --accent-2: #fb923c;
    --accent-3: #f59e0b;
    --accent-4: #fca5a5;
    --accent-5: #d6a66f;
    --accent-6: #7dd3fc;
}
:root[data-theme="light"] {
    --background: #f8fafc;
    --panel: #ffffff;
    --primary-text: #0f172a;
    --muted-text: #64748b;
    --inverse-text: #ffffff;
    --border: #e2e8f0;
    --shadow-color: #000000;
    --icon-pad-bg: #1e293b;
    --art-glow: #0891b2;
    --art-glow-opacity: 0.10;
    --art-sheen: #ffffff;
    --art-sheen-opacity: 0.34;
    --art-shadow: #0f172a;
    --art-shadow-opacity: 0.14;
    --art-muted-line: #94a3b8;
    --art-panel-tint: #f1f5f9;
    --semantic-risk: #b91c1c;
    --semantic-warning: #c2410c;
    --semantic-uncertain: #a16207;
    --semantic-evidence: #1d4ed8;
    --semantic-claim: #6d28d9;
    --semantic-positive: #15803d;
    --semantic-outcome: #0e7490;
    --accent-1: #a16207;
    --accent-2: #c2410c;
    --accent-3: #b45309;
    --accent-4: #b91c1c;
    --accent-5: #92400e;
    --accent-6: #0369a1;
}</style>
  <rect x="0" y="0" width="1.92E+3" height="1.08E+3" fill="#252a34" stroke="none" id="programmatic_background"/>
  <line id="HEADER_DECOR" x1="960.0" x2="1080.0" y1="107.0" y2="107.0" stroke="var(--accent-1)" stroke-width="6" stroke-linecap="round"/>
  <defs>
    <pattern id="svg4194d7e5-napkin-hatch" patternUnits="userSpaceOnUse" width="12" height="12">
      <path d="M -3 12 L 12 -3 M 0 15 L 15 0" fill="none" stroke="var(--primary-text)" stroke-width="1" stroke-opacity="0.05"/>
    </pattern>
    <filter id="svg4194d7e5-shadow" x="-30%" y="-30%" width="160%" height="160%">
      <feDropShadow dx="0" dy="2" stdDeviation="3" flood-color="#000000" flood-opacity="0.08"/>
      <feDropShadow dx="0" dy="6" stdDeviation="10" flood-color="#000000" flood-opacity="0.12"/>
    </filter>
    <filter id="svg4194d7e5-soft-glow" x="-40%" y="-40%" width="180%" height="180%">
      <feDropShadow dx="0" dy="0" stdDeviation="6" flood-color="#000000" flood-opacity="0.12"/>
    </filter>
    <radialGradient id="svg4194d7e5-universal-edge-vignette" cx="50%" cy="50%" r="72%">
      <stop offset="0%" stop-color="var(--background)" stop-opacity="0"/>
      <stop offset="72%" stop-color="var(--background)" stop-opacity="0.12"/>
      <stop offset="100%" stop-color="var(--primary-text)" stop-opacity="0.08"/>
    </radialGradient>
    <linearGradient id="svg4194d7e5-universal-surface-sheen" x1="0%" y1="0%" x2="100%" y2="100%">
      <stop offset="0%" stop-color="var(--art-sheen)" stop-opacity="var(--art-sheen-opacity)"/>
      <stop offset="46%" stop-color="var(--art-sheen)" stop-opacity="0.035"/>
      <stop offset="100%" stop-color="var(--art-panel-tint)" stop-opacity="0.14"/>
    </linearGradient>
    <radialGradient id="svg4194d7e5-universal-icon-aura" cx="50%" cy="42%" r="64%">
      <stop offset="0%" stop-color="var(--art-glow)" stop-opacity="var(--art-glow-opacity)"/>
      <stop offset="100%" stop-color="var(--background)" stop-opacity="0"/>
    </radialGradient>
    <filter id="svg4194d7e5-text-glow" x="-20%" y="-20%" width="140%" height="140%">
      <feDropShadow dx="0" dy="0" stdDeviation="2" flood-color="#000000" flood-opacity="0.4"/>
    </filter>
    <marker id="svg4194d7e5-arrowhead" markerWidth="10" markerHeight="7" refX="9" refY="3.5" orient="auto" markerUnits="strokeWidth">
      <polygon points="0 0, 10 3.5, 0 7" fill="var(--muted-text)" opacity="0.6"/>
    </marker>
  </defs>
  <rect width="100%" height="100%" fill="var(--background)" id="CANVAS_BG"/>
  <rect width="100%" height="100%" fill="url(#svg4194d7e5-napkin-hatch)"/>
  <rect id="UNIVERSAL_EDGE_VIGNETTE" width="100%" height="100%" fill="url(#svg4194d7e5-universal-edge-vignette)" opacity="0.62"/>
  <text id="TITLE" x="960.0" y="59" text-anchor="middle" font-weight="800" font-size="58" fill="#f1f5f9" style="font-size: 69px; font-family: 'Segoe UI Variable Display', 'Aptos Display', 'Inter', 'Segoe UI', Helvetica, Arial, sans-serif; font-weight: 800; font-kerning: normal; font-feature-settings: &quot;kern&quot; 1, &quot;liga&quot; 1; letter-spacing:-1.2px;" data-final-font-size="69">
    <tspan x="960.0" dy="70.47px">Valderas Photographic Interpretations</tspan>
  </text>
  <rect id="TITLE_FRAME" x="134" y="44" width="1652" height="110" fill="none"/>
  <g id="DIAGRAM_SCALER">
    <line x1="960" y1="220" x2="960" y2="970" stroke="var(--border)" stroke-width="8" stroke-linecap="round" opacity="0.75"/>
    <line x1="960" y1="303.2" x2="914" y2="303.2" stroke="var(--accent-1)" stroke-width="4" stroke-linecap="round" opacity="0.55"/>
    <circle cx="960" cy="303.2" r="9" fill="var(--accent-1)" opacity="0.95" filter="url(#svg4194d7e5-soft-glow)"/>
    <rect id="ITEM_1_BG" x="224.0" y="221.6" width="690.0" height="163.2" rx="81.6" fill="var(--panel)" stroke="var(--accent-1)" stroke-width="3" filter="url(#svg4194d7e5-shadow)"/>
    <rect x="236.0" y="233.6" width="666.0" height="139.2" rx="69.6" fill="var(--accent-1)" fill-opacity="0.055"/>
    <rect x="894.0" y="221.6" width="20" height="163.2" rx="10" fill="var(--accent-1)" fill-opacity="0.24"/>
    <circle id="ITEM_1_PAD" cx="828.0" cy="303.2" r="42" fill="var(--icon-pad-bg)" stroke="var(--semantic-uncertain)" opacity="1" fill-opacity="0.9" stroke-width="2" stroke-opacity="0.72" data-badge-layer="pad"/>
    <circle id="ITEM_1_PAD_INNER" cx="828.0" cy="303.2" r="32.76" fill="var(--semantic-uncertain)" fill-opacity="0.12" stroke="none" data-badge-layer="tint"/>
    <circle cx="828.0" cy="303.2" r="33.6" fill="none" stroke="var(--accent-1)" stroke-width="3" stroke-dasharray="6 4" display="none" data-suppressed-decoration="redundant-badge-ring"/>
    <g id="ITEM_1_ICON" transform="translate(802.0, 277.2)" data-icon-size="52" stroke-linecap="round" stroke-linejoin="round" data-badge-treatment="clean">
      <g transform="translate(-12.826666666666664,-14.646666666666668) scale(3.2355555555555555)" vector-effect="non-scaling-stroke" stroke-width="2.34" stroke-linecap="round" stroke-linejoin="round" stroke-opacity="1.0">
        <path d="M4 21v-15c0 -1 1 -2 2 -2h5c1 0 2 1 2 2v15" vector-effect="non-scaling-stroke" fill="none" stroke="#f1f5f9"/>
        <path d="M16 8h2c1 0 2 1 2 2v11" vector-effect="non-scaling-stroke" fill="none" stroke="#f1f5f9"/>
        <path d="M3 21h18" vector-effect="non-scaling-stroke" fill="none" stroke="#f1f5f9"/>
        <path d="M10 12v0" vector-effect="non-scaling-stroke" fill="none" stroke="#f1f5f9"/>
        <path d="M10 16v0" vector-effect="non-scaling-stroke" fill="none" stroke="#f1f5f9"/>
        <path d="M10 8v0" vector-effect="non-scaling-stroke" fill="none" stroke="#f1f5f9"/>
        <path d="M7 12v0" vector-effect="non-scaling-stroke" fill="none" stroke="#f1f5f9"/>
        <path d="M7 16v0" vector-effect="non-scaling-stroke" fill="none" stroke="#f1f5f9"/>
        <path d="M7 8v0" vector-effect="non-scaling-stroke" fill="none" stroke="#f1f5f9"/>
        <path d="M17 12v0" vector-effect="non-scaling-stroke" fill="none" stroke="#f1f5f9"/>
        <path d="M17 16v0" vector-effect="non-scaling-stroke" fill="none" stroke="#f1f5f9"/>
      </g>
    </g>
    <text id="ITEM_1_HEAD" x="710.0" y="261.2" text-anchor="end" font-weight="bold" font-size="28" fill="var(--semantic-uncertain)" data-bg-id="ITEM_1_BG" fill-opacity="1.0" stroke="none" style="font-size: 31px; font-family: 'Segoe UI Variable Display', 'Aptos Display', 'Inter', 'Segoe UI', Helvetica, Arial, sans-serif; font-weight: 700; font-kerning: normal; font-feature-settings: &quot;kern&quot; 1, &quot;liga&quot; 1; letter-spacing:-0.4px;" data-final-font-size="31">
      <tspan x="710.0" dy="28.52px">Original Believer Claim</tspan>
    </text>
    <rect id="ITEM_1_HEAD_FRAME" x="260.0" y="261.2" width="450.0" height="40" fill="none"/>
    <text id="ITEM_1_BODY" x="710.0" y="305.2" text-anchor="end" font-size="20" fill="var(--primary-text)" data-bg-id="ITEM_1_BG" style="font-size: 23px; font-family: 'Segoe UI Variable Text', 'Aptos', 'Inter', 'Segoe UI', Helvetica, Arial, sans-serif; font-weight: 400; font-kerning: normal; font-feature-settings: &quot;kern&quot; 1, &quot;liga&quot; 1;" data-final-font-size="23">
      <tspan x="710.0" dy="19.82px">Large extraterrestrial craft flying over</tspan>
      <tspan x="710.0" dy="26.45px">Madrid suburbs</tspan>
    </text>
    <rect id="ITEM_1_BODY_FRAME" x="260.0" y="305.2" width="450.0" height="60" fill="none"/>
    <line x1="960" y1="494.4" x2="1006" y2="494.4" stroke="var(--accent-2)" stroke-width="4" stroke-linecap="round" opacity="0.55"/>
    <circle cx="960" cy="494.4" r="9" fill="var(--accent-2)" opacity="0.95" filter="url(#svg4194d7e5-soft-glow)"/>
    <rect id="ITEM_2_BG" x="1006.0" y="412.8" width="690.0" height="163.2" rx="81.6" fill="var(--panel)" stroke="var(--accent-2)" stroke-width="3" filter="url(#svg4194d7e5-shadow)"/>
    <rect x="1018.0" y="424.8" width="666.0" height="139.2" rx="69.6" fill="var(--accent-2)" fill-opacity="0.055"/>
    <rect x="1006.0" y="412.8" width="20" height="163.2" rx="10" fill="var(--accent-2)" fill-opacity="0.24"/>
    <circle id="ITEM_2_PAD" cx="1092.0" cy="494.4" r="42" fill="var(--icon-pad-bg)" stroke="var(--semantic-uncertain)" opacity="1" fill-opacity="0.9" stroke-width="2" stroke-opacity="0.72" data-badge-layer="pad"/>
    <circle id="ITEM_2_PAD_INNER" cx="1092.0" cy="494.4" r="32.76" fill="var(--semantic-uncertain)" fill-opacity="0.12" stroke="none" data-badge-layer="tint"/>
    <circle cx="1092.0" cy="494.4" r="33.6" fill="none" stroke="var(--accent-2)" stroke-width="3" stroke-dasharray="6 4" display="none" data-suppressed-decoration="redundant-badge-ring"/>
    <g id="ITEM_2_ICON" transform="translate(1066.0, 468.4)" data-icon-size="52" stroke-linecap="round" stroke-linejoin="round" data-badge-treatment="clean">
      <g transform="translate(-11.439999999999998,-12.9025) scale(2.34)">
        <path d="M5 11L12 9.98657L19 11V25L12 26.0111L5 25V11Z" fill="#00A6ED"/>
        <path d="M4.5 6C3.11929 6 2 7.11929 2 8.5C2 9.88071 3.11929 11 4.5 11H19.5C20.8807 11 22 9.88071 22 8.5C22 7.11929 20.8807 6 19.5 6H4.5Z" fill="#F3AD61"/>
        <path d="M4.5 25C3.11929 25 2 26.1193 2 27.5C2 28.8807 3.11929 30 4.5 30H19.5C20.8807 30 22 28.8807 22 27.5C22 26.1193 20.8807 25 19.5 25H4.5Z" fill="#F3AD61"/>
        <path d="M19.5 3.25C19.0858 3.25 18.75 3.58579 18.75 4C18.75 4.41421 19.0858 4.75 19.5 4.75C22.6002 4.75 24.5302 7.00229 24.6895 9.17973C24.7682 10.2551 24.4172 11.306 23.5611 12.0978C22.6985 12.8956 21.245 13.5 19 13.5H5V15H19C21.505 15 23.364 14.3232 24.5795 13.1991C25.8015 12.069 26.2943 10.5574 26.1855 9.07027C25.9698 6.12271 23.3998 3.25 19.5 3.25Z" fill="#3F5FFF"/>
        <path d="M5 16H19V17.5H5V16Z" fill="#3F5FFF"/>
        <path d="M19 21H5V22.5H19V21Z" fill="#3F5FFF"/>
        <path d="M30 6.75C30 7.99264 28.9927 9 27.75 9C27.4083 9 27.0844 8.92383 26.7944 8.78756C26.7813 8.80066 26.7673 8.81325 26.7526 8.82526L8.72119 22.8234C8.48428 23.0094 8.14542 22.9829 7.94827 22.7556C7.75055 22.5356 7.77726 22.1944 8 22L25.5 7.5C25.532 7.47097 25.5668 7.44651 25.6035 7.42661C25.5363 7.21306 25.5 6.98576 25.5 6.75C25.5 5.50736 26.5074 4.5 27.75 4.5C28.9927 4.5 30 5.50736 30 6.75ZM28.5 6.75C28.5 6.33579 28.1642 6 27.75 6C27.3358 6 27 6.33579 27 6.75C27 7.16421 27.3358 7.5 27.75 7.5C28.1642 7.5 28.5 7.16421 28.5 6.75Z" fill="#D3D3D3"/>
        <path d="M5 18.5H19V20H5V18.5Z" fill="#3F5FFF"/>
      </g>
    </g>
    <text id="ITEM_2_HEAD" x="1162.0" y="452.4" text-anchor="start" font-weight="bold" font-size="28" fill="var(--semantic-uncertain)" data-bg-id="ITEM_2_BG" fill-opacity="1.0" stroke="none" style="font-size: 31px; font-family: 'Segoe UI Variable Display', 'Aptos Display', 'Inter', 'Segoe UI', Helvetica, Arial, sans-serif; font-weight: 700; font-kerning: normal; font-feature-settings: &quot;kern&quot; 1, &quot;liga&quot; 1; letter-spacing:-0.4px;" data-final-font-size="31">
      <tspan x="1162.0" dy="28.52px">Poher Technical Analysis</tspan>
    </text>
    <rect id="ITEM_2_HEAD_FRAME" x="1162.0" y="452.4" width="450.0" height="40" fill="none"/>
    <text id="ITEM_2_BODY" x="1162.0" y="496.4" text-anchor="start" font-size="20" fill="var(--primary-text)" data-bg-id="ITEM_2_BG" style="font-size: 23px; font-family: 'Segoe UI Variable Text', 'Aptos', 'Inter', 'Segoe UI', Helvetica, Arial, sans-serif; font-weight: 400; font-kerning: normal; font-feature-settings: &quot;kern&quot; 1, &quot;liga&quot; 1;" data-final-font-size="23">
      <tspan x="1162.0" dy="19.82px">Geometry suggests a small model hung</tspan>
      <tspan x="1162.0" dy="26.45px">from a line</tspan>
    </text>
    <rect id="ITEM_2_BODY_FRAME" x="1162.0" y="496.4" width="450.0" height="60" fill="none"/>
    <line x1="960" y1="685.6" x2="914" y2="685.6" stroke="var(--accent-3)" stroke-width="4" stroke-linecap="round" opacity="0.55"/>
    <circle cx="960" cy="685.6" r="9" fill="var(--accent-3)" opacity="0.95" filter="url(#svg4194d7e5-soft-glow)"/>
    <rect id="ITEM_3_BG" x="224.0" y="604.0" width="690.0" height="163.2" rx="81.6" fill="var(--panel)" stroke="var(--accent-3)" stroke-width="3" filter="url(#svg4194d7e5-shadow)"/>
    <rect x="236.0" y="616.0" width="666.0" height="139.2" rx="69.6" fill="var(--accent-3)" fill-opacity="0.055"/>
    <rect x="894.0" y="604.0" width="20" height="163.2" rx="10" fill="var(--accent-3)" fill-opacity="0.24"/>
    <circle id="ITEM_3_PAD" cx="828.0" cy="685.6" r="42" fill="var(--icon-pad-bg)" stroke="var(--semantic-uncertain)" opacity="1" fill-opacity="0.9" stroke-width="2" stroke-opacity="0.72" data-badge-layer="pad"/>
    <circle id="ITEM_3_PAD_INNER" cx="828.0" cy="685.6" r="32.76" fill="var(--semantic-uncertain)" fill-opacity="0.12" stroke="none" data-badge-layer="tint"/>
    <circle cx="828.0" cy="685.6" r="33.6" fill="none" stroke="var(--accent-3)" stroke-width="3" stroke-dasharray="6 4" display="none" data-suppressed-decoration="redundant-badge-ring"/>
    <g id="ITEM_3_ICON" transform="translate(802.0, 659.6)" data-icon-size="52" stroke-linecap="round" stroke-linejoin="round" data-badge-treatment="clean">
      <g transform="translate(-13.194999999999997,-11.439999999999998) scale(2.34)">
        <path d="M9 3C9 2.44771 9.44772 2 10 2H22C22.5523 2 23 2.44772 23 3V7.25209C21.0298 5.83476 18.6124 5 16 5C13.3876 5 10.9702 5.83476 9 7.25209V3Z" fill="#3F5FFF"/>
        <path d="M16 27C18.6124 27 21.0298 26.1652 23 24.7479V29C23 29.5523 22.5523 30 22 30H10C9.44772 30 9 29.5523 9 29V24.7479C10.9702 26.1652 13.3876 27 16 27Z" fill="#3F5FFF"/>
        <path d="M27 14C26.4477 14 26 14.4477 26 15V17C26 17.5523 26.4477 18 27 18H28.5C29.0523 18 29.5 17.5523 29.5 17V15C29.5 14.4477 29.0523 14 28.5 14H27Z" fill="#3F5FFF"/>
        <path d="M28 16C28 22.6274 22.6274 28 16 28C9.37258 28 4 22.6274 4 16C4 9.37258 9.37258 4 16 4C22.6274 4 28 9.37258 28 16Z" fill="#A4AEEB"/>
        <path d="M25 16C25 20.9706 20.9706 25 16 25C11.0294 25 7 20.9706 7 16C7 11.0294 11.0294 7 16 7C20.9706 7 25 11.0294 25 16Z" fill="#5235A6"/>
        <path d="M16 8C15.4477 8 15 8.44772 15 9V15C15 15.2108 15.0652 15.4064 15.1766 15.5676L11.9103 19.2092C11.5415 19.6203 11.5758 20.2526 11.987 20.6213C12.3981 20.9901 13.0303 20.9558 13.3991 20.5446L16.7376 16.8225C17.054 16.4698 17.0737 15.9543 16.8132 15.5821C16.9308 15.4181 17 15.2171 17 15V9C17 8.44772 16.5523 8 16 8Z" fill="white"/>
        <path d="M18 16C18 17.1046 17.1046 18 16 18C14.8954 18 14 17.1046 14 16C14 14.8954 14.8954 14 16 14C17.1046 14 18 14.8954 18 16Z" fill="#FCD53F"/>
      </g>
    </g>
    <text id="ITEM_3_HEAD" x="710.0" y="643.6" text-anchor="end" font-weight="bold" font-size="28" fill="var(--semantic-uncertain)" data-bg-id="ITEM_3_BG" fill-opacity="1.0" stroke="none" style="font-size: 31px; font-family: 'Segoe UI Variable Display', 'Aptos Display', 'Inter', 'Segoe UI', Helvetica, Arial, sans-serif; font-weight: 700; font-kerning: normal; font-feature-settings: &quot;kern&quot; 1, &quot;liga&quot; 1; letter-spacing:-0.4px;" data-final-font-size="31">
      <tspan x="710.0" dy="28.52px">Ground Saucer Watch</tspan>
    </text>
    <rect id="ITEM_3_HEAD_FRAME" x="260.0" y="643.6" width="450.0" height="40" fill="none"/>
    <text id="ITEM_3_BODY" x="710.0" y="687.6" text-anchor="end" font-size="20" fill="var(--primary-text)" data-bg-id="ITEM_3_BG" style="font-size: 23px; font-family: 'Segoe UI Variable Text', 'Aptos', 'Inter', 'Segoe UI', Helvetica, Arial, sans-serif; font-weight: 400; font-kerning: normal; font-feature-settings: &quot;kern&quot; 1, &quot;liga&quot; 1;" data-final-font-size="23">
      <tspan x="710.0" dy="19.82px">Computer enhancement identifies a linear</tspan>
      <tspan x="710.0" dy="26.45px">supporting thread</tspan>
    </text>
    <rect id="ITEM_3_BODY_FRAME" x="260.0" y="687.6" width="450.0" height="60" fill="none"/>
    <line x1="960" y1="876.8" x2="1006" y2="876.8" stroke="var(--accent-4)" stroke-width="4" stroke-linecap="round" opacity="0.55"/>
    <circle cx="960" cy="876.8" r="9" fill="var(--accent-4)" opacity="0.95" filter="url(#svg4194d7e5-soft-glow)"/>
    <rect id="ITEM_4_BG" x="1006.0" y="795.2" width="690.0" height="163.2" rx="81.6" fill="var(--panel)" stroke="var(--accent-4)" stroke-width="3" filter="url(#svg4194d7e5-shadow)"/>
    <rect x="1018.0" y="807.2" width="666.0" height="139.2" rx="69.6" fill="var(--accent-4)" fill-opacity="0.055"/>
    <rect x="1006.0" y="795.2" width="20" height="163.2" rx="10" fill="var(--accent-4)" fill-opacity="0.24"/>
    <circle id="ITEM_4_PAD" cx="1092.0" cy="876.8" r="42" fill="var(--icon-pad-bg)" stroke="var(--semantic-uncertain)" opacity="1" fill-opacity="0.9" stroke-width="2" stroke-opacity="0.72" data-badge-layer="pad"/>
    <circle id="ITEM_4_PAD_INNER" cx="1092.0" cy="876.8" r="32.76" fill="var(--semantic-uncertain)" fill-opacity="0.12" stroke="none" data-badge-layer="tint"/>
    <circle cx="1092.0" cy="876.8" r="33.6" fill="none" stroke="var(--accent-4)" stroke-width="3" stroke-dasharray="6 4" display="none" data-suppressed-decoration="redundant-badge-ring"/>
    <g id="ITEM_4_ICON" transform="translate(1066.0, 850.8)" data-icon-size="52" stroke-linecap="round" stroke-linejoin="round" data-badge-treatment="clean">
      <g transform="translate(-11.439999999999998,-11.439999999999998) scale(2.34)">
        <path d="M10 14V8H11V14H10Z" fill="#D3D3D3"/>
        <path d="M9 13.5C9 13.2239 9.22386 13 9.5 13H11.5C11.7761 13 12 13.2239 12 13.5V13.5C12 13.7761 11.7761 14 11.5 14H9.5C9.22386 14 9 13.7761 9 13.5V13.5Z" fill="#0074BA"/>
        <path d="M11.7716 8.29596C11.3323 8.9977 10.4074 9.21086 9.7052 8.772C9.0027 8.33293 8.78914 7.40751 9.2282 6.705L9.22886 6.70395L9.22958 6.7028L9.23119 6.70023L9.23514 6.69398L9.24591 6.67713C9.25436 6.66399 9.26536 6.64708 9.2789 6.62664C9.30597 6.58577 9.34326 6.53073 9.39065 6.46353C9.48534 6.32929 9.62103 6.14564 9.79697 5.92911C10.1474 5.49784 10.6656 4.92604 11.3465 4.35263C12.7022 3.21103 14.7827 2 17.5002 2C21.7588 2 26.0002 5.60345 26.0002 10.5V28.5C26.0002 29.3284 25.3286 30 24.5002 30C23.6718 30 23.0002 29.3284 23.0002 28.5V10.5C23.0002 7.39655 20.2416 5 17.5002 5C15.7177 5 14.2982 5.78897 13.2789 6.64737C12.7723 7.07396 12.3843 7.50216 12.1253 7.82089C11.9966 7.97936 11.9018 8.10821 11.8422 8.19272C11.8124 8.2349 11.7916 8.26579 11.7798 8.28352L11.7691 8.29992L11.771 8.29683L11.7716 8.29596Z" fill="#6D4534"/>
        <path d="M25 20.5C25 22.433 23.433 24 21.5 24C19.567 24 18 22.433 18 20.5C18 18.567 19.567 17 21.5 17C23.433 17 25 18.567 25 20.5Z" fill="#BEBEBE"/>
        <path d="M21.5 19.13C21.8452 19.13 22.125 18.8502 22.125 18.505C22.125 18.1598 21.8452 17.88 21.5 17.88C21.1548 17.88 20.875 18.1598 20.875 18.505C20.875 18.8502 21.1548 19.13 21.5 19.13Z" fill="#636363"/>
        <path d="M19.5 21.13C19.8452 21.13 20.125 20.8502 20.125 20.505C20.125 20.1598 19.8452 19.88 19.5 19.88C19.1548 19.88 18.875 20.1598 18.875 20.505C18.875 20.8502 19.1548 21.13 19.5 21.13Z" fill="#636363"/>
        <path d="M23.5 21.13C23.8452 21.13 24.125 20.8502 24.125 20.505C24.125 20.1598 23.8452 19.88 23.5 19.88C23.1548 19.88 22.875 20.1598 22.875 20.505C22.875 20.8502 23.1548 21.13 23.5 21.13Z" fill="#636363"/>
        <path d="M22.125 22.505C22.125 22.8502 21.8452 23.13 21.5 23.13C21.1548 23.13 20.875 22.8502 20.875 22.505C20.875 22.1598 21.1548 21.88 21.5 21.88C21.8452 21.88 22.125 22.1598 22.125 22.505Z" fill="#636363"/>
        <path d="M9 27C9 26.5 6 25 6 18.5H15C15 25 12 26.5 12 27C12 27.5 12 27.5 12 27.5C12 27.6449 12.2521 27.6638 12.6102 27.6906C13.4872 27.7563 15 27.8697 15 30H12.5C11.5 30 10.5 29 10.5 28.5C10.5 29 9.5 30 8.5 30H6C6 27.8697 7.51275 27.7563 8.38983 27.6906C8.74789 27.6638 9 27.6449 9 27.5C9 27.5 9 27.5 9 27Z" fill="#00A6ED"/>
        <path d="M15 18.5C15 20.9853 12.9853 23 10.5 23C8.01472 23 6 20.9853 6 18.5C6 16.0147 8.01472 14 10.5 14C12.9853 14 15 16.0147 15 18.5Z" fill="#26EAFC"/>
        <path d="M11 17.5C11 17.2239 11.2239 17 11.5 17H12.5C12.7761 17 13 17.2239 13 17.5V17.5C13 17.7761 12.7761 18 12.5 18H11.5C11.2239 18 11 17.7761 11 17.5V17.5Z" fill="#533566"/>
      </g>
    </g>
    <text id="ITEM_4_HEAD" x="1162.0" y="834.8" text-anchor="start" font-weight="bold" font-size="28" fill="var(--semantic-uncertain)" data-bg-id="ITEM_4_BG" fill-opacity="1.0" stroke="none" style="font-size: 31px; font-family: 'Segoe UI Variable Display', 'Aptos Display', 'Inter', 'Segoe UI', Helvetica, Arial, sans-serif; font-weight: 700; font-kerning: normal; font-feature-settings: &quot;kern&quot; 1, &quot;liga&quot; 1; letter-spacing:-0.4px;" data-final-font-size="31">
      <tspan x="1162.0" dy="28.52px">Practical Reconstruction</tspan>
    </text>
    <rect id="ITEM_4_HEAD_FRAME" x="1162.0" y="834.8" width="450.0" height="40" fill="none"/>
    <text id="ITEM_4_BODY" x="1162.0" y="878.8" text-anchor="start" font-size="20" fill="var(--primary-text)" data-bg-id="ITEM_4_BG" style="font-size: 23px; font-family: 'Segoe UI Variable Text', 'Aptos', 'Inter', 'Segoe UI', Helvetica, Arial, sans-serif; font-weight: 400; font-kerning: normal; font-feature-settings: &quot;kern&quot; 1, &quot;liga&quot; 1;" data-final-font-size="23">
      <tspan x="1162.0" dy="19.82px">Model and fishing equipment replicate</tspan>
      <tspan x="1162.0" dy="26.45px">the visual effect</tspan>
    </text>
    <rect id="ITEM_4_BODY_FRAME" x="1162.0" y="878.8" width="450.0" height="60" fill="none"/>
  </g>
  <text id="SOURCE_NOTE" x="134.0" y="1058.0" fill="var(--muted-text)" opacity="0.88" style="font-family: var(--font-family); font-size: 20px;">Source: Introduction</text>
</svg>
